<svg aria-hidden="true" style="position: absolute; width: 0; height: 0; overflow: hidden;" version="1.1" xmlns="http://www.w3.org/2000/svg" xmlns:xlink="http://www.w3.org/1999/xlink">
<defs>
<symbol id="icon-fb-icon" viewBox="0 0 32 32">
<path fill="#2f80ed" style="fill: var(--color1, #2f80ed)" d="M16 0.064c-8.8 0-16 7.184-16 16.032 0 8 5.856 14.64 13.504 15.84v-11.2h-4.064v-4.64h4.064v-3.536c0-4.016 2.384-6.224 6.048-6.224 1.744 0 3.568 0.304 3.568 0.304v3.952h-2.016c-1.984 0-2.608 1.232-2.608 2.496v3.008h4.448l-0.72 4.64h-3.728v11.2c7.698-1.249 13.504-7.849 13.504-15.804 0-0.013 0-0.025-0-0.038v0.002c0-8.848-7.2-16.032-16-16.032z"></path>
</symbol>
<symbol id="icon-instagram-icon" viewBox="0 0 32 32">
<path fill="#2f80ed" style="fill: var(--color1, #2f80ed)" d="M10.4 2.667h11.2c4.267 0 7.733 3.467 7.733 7.733v11.2c0 4.271-3.462 7.733-7.733 7.733v0h-11.2c-4.267 0-7.733-3.467-7.733-7.733v-11.2c0-4.271 3.462-7.733 7.733-7.733v0zM10.133 5.333c-2.651 0-4.8 2.149-4.8 4.8v0 11.733c0 2.653 2.147 4.8 4.8 4.8h11.733c2.651 0 4.8-2.149 4.8-4.8v0-11.733c0-2.653-2.147-4.8-4.8-4.8h-11.733zM23 7.333c0.92 0 1.667 0.746 1.667 1.667s-0.746 1.667-1.667 1.667v0c-0.92 0-1.667-0.746-1.667-1.667s0.746-1.667 1.667-1.667v0zM16 9.333c3.682 0 6.667 2.985 6.667 6.667s-2.985 6.667-6.667 6.667v0c-3.682 0-6.667-2.985-6.667-6.667s2.985-6.667 6.667-6.667v0zM16 12c-2.209 0-4 1.791-4 4s1.791 4 4 4v0c2.209 0 4-1.791 4-4s-1.791-4-4-4v0z"></path>
</symbol>
<symbol id="icon-telegram-icon" viewBox="0 0 37 32">
<path fill="#2f80ed" style="fill: var(--color1, #2f80ed)" d="M33.182 1.275l-31.52 12.155c-2.151 0.864-2.139 2.064-0.395 2.599l8.092 2.524 18.724-11.813c0.885-0.539 1.694-0.249 1.029 0.341l-15.17 13.692-0.558 8.341c0.818 0 1.179-0.373 1.637-0.818l3.931-3.822 8.176 6.039c1.508 0.83 2.59 0.404 2.965-1.396l5.367-25.294c0.549-2.203-0.841-3.2-2.279-2.549z"></path>
</symbol>
<symbol id="icon-viber-icon" viewBox="0 0 32 32">
<path fill="#2f80ed" style="fill: var(--color1, #2f80ed)" d="M29.056 7.744c-4.608-7.104-14.016-9.216-21.312-4.8-7.104 4.416-9.408 14.016-4.8 21.12l0.384 0.576-1.536 5.76 5.76-1.536 0.576 0.384c2.496 1.344 5.184 2.112 7.872 2.112 2.88 0 5.76-0.768 8.256-2.304 7.104-4.608 9.216-14.016 4.8-21.312zM25.024 22.528c-0.768 1.152-1.728 1.92-3.072 2.112-0.768 0-1.728 0.384-5.568-1.152-3.264-1.536-5.952-4.032-7.872-6.912-1.152-1.344-1.728-3.072-1.92-4.8 0-1.536 0.576-2.88 1.536-3.84 0.384-0.384 0.768-0.576 1.152-0.576h0.96c0.384 0 0.768 0 0.96 0.768 0.384 0.96 1.344 3.264 1.344 3.456 0.192 0.192 0.192 0.576 0 0.768 0.192 0.384 0 0.768-0.192 0.96s-0.384 0.576-0.576 0.768c-0.384 0.192-0.576 0.576-0.384 0.96 0.768 1.152 1.728 2.304 2.688 3.264 1.152 0.96 2.304 1.728 3.648 2.304 0.384 0.192 0.768 0.192 0.96-0.192s1.152-1.344 1.536-1.728c0.384-0.384 0.576-0.384 0.96-0.192l3.072 1.536c0.384 0.192 0.768 0.384 0.96 0.576 0.192 0.576 0.192 1.344-0.192 1.92z"></path>
</symbol>
</defs>
</svg>
