<?xml version="1.0" standalone="no"?>
<!DOCTYPE svg PUBLIC "-//W3C//DTD SVG 20010904//EN"
 "http://www.w3.org/TR/2001/REC-SVG-20010904/DTD/svg10.dtd">
<svg version="1.0" xmlns="http://www.w3.org/2000/svg"
 width="1280.000000pt" height="1000.000000pt" viewBox="0 0 1280.000000 1000.000000"
 preserveAspectRatio="xMidYMid meet">

<g transform="translate(0.000000,1000.000000) scale(0.100000,-0.100000)"
fill="#000000" stroke="none">
<path d="M5760 9159 c-36 -12 -76 -25 -90 -31 -28 -11 -147 -146 -182 -207
-14 -24 -33 -43 -48 -46 -14 -4 -34 -15 -45 -25 -20 -19 -22 -19 -90 4 -39 14
-106 27 -150 31 -44 3 -136 13 -205 22 -158 20 -328 14 -421 -16 -163 -52
-248 -194 -169 -284 33 -38 36 -47 18 -47 -18 -1 -63 -40 -77 -67 -17 -34 -13
-88 9 -116 24 -30 25 -37 6 -37 -21 0 -66 -40 -77 -67 -19 -49 45 -149 119
-184 36 -18 70 -24 165 -28 l119 -6 -64 -55 c-34 -31 -101 -83 -148 -117 -176
-126 -485 -440 -788 -798 -178 -211 -160 -190 -265 -318 -49 -59 -92 -105 -96
-103 -8 5 -21 72 -46 236 -32 216 -39 250 -70 355 -40 135 -54 168 -94 223
-56 75 -127 94 -271 72 -124 -20 -197 -47 -244 -93 -39 -37 -45 -49 -51 -98
l-7 -57 -42 24 c-48 28 -98 30 -179 9 -161 -42 -239 -121 -288 -295 -38 -133
-17 -346 55 -542 19 -54 31 -98 26 -98 -5 0 -24 9 -42 19 -18 11 -61 25 -95
32 -55 11 -69 11 -120 -5 -35 -11 -68 -30 -86 -49 -34 -37 -84 -134 -122 -237
-36 -100 -37 -201 -1 -360 14 -63 37 -173 51 -245 35 -175 53 -228 135 -380
117 -219 186 -355 230 -460 37 -88 79 -182 152 -345 11 -25 30 -58 41 -74 19
-27 20 -33 7 -275 -10 -214 -10 -266 4 -401 26 -255 102 -517 207 -717 103
-196 199 -325 352 -475 110 -108 189 -162 387 -268 85 -46 207 -112 270 -148
183 -104 361 -182 526 -231 85 -25 446 -104 574 -125 178 -29 338 -34 990 -25
1061 13 1406 42 2240 190 298 53 423 84 680 167 118 39 242 78 275 87 179 51
554 192 730 275 50 23 99 46 111 50 118 46 611 386 726 500 179 179 357 618
397 983 6 53 16 139 21 190 15 129 29 452 23 515 -3 28 -2 52 3 52 21 0 124
-45 175 -76 41 -26 79 -39 138 -49 46 -8 86 -17 90 -20 22 -13 132 -21 205
-15 79 8 147 32 197 72 35 28 69 91 69 128 0 20 7 59 15 86 24 81 20 102 -28
149 -24 23 -65 50 -90 61 -26 10 -47 21 -47 24 0 3 28 13 61 23 37 11 73 29
90 47 25 25 29 36 29 85 0 100 -49 167 -219 300 -76 59 -137 90 -381 187 -69
28 -129 52 -133 55 -5 3 2 17 16 32 36 38 49 68 49 115 3 159 -268 359 -557
412 -99 18 -501 74 -535 74 -14 0 -35 12 -50 29 -61 70 -213 247 -306 356 -56
66 -146 161 -200 210 -55 50 -175 167 -269 260 -146 146 -282 268 -528 473
-72 60 -236 156 -321 188 -39 15 -132 56 -206 91 -74 35 -212 90 -307 122
-125 42 -198 74 -265 113 -161 96 -227 124 -378 162 -80 20 -194 54 -255 77
-60 22 -166 56 -235 75 -69 19 -206 60 -304 91 -99 30 -231 65 -294 77 -64 12
-117 26 -119 31 -2 6 21 23 51 38 64 34 140 105 167 158 64 127 -46 300 -192
299 -24 -1 -73 -10 -109 -21z m152 -111 c27 -23 48 -62 48 -90 0 -41 -68 -105
-182 -171 -127 -75 -150 -74 -75 1 31 32 57 61 57 64 0 4 -30 -11 -67 -33 -37
-21 -73 -39 -80 -39 -22 0 -25 21 -7 39 11 10 51 54 89 98 119 134 172 166
217 131z m-877 -257 c158 -15 213 -25 261 -47 l39 -18 -85 -6 c-125 -10 -212
-49 -236 -107 -27 -63 -10 -148 39 -201 l22 -24 -24 -16 c-14 -9 -43 -31 -65
-50 -154 -124 -180 -140 -236 -146 -108 -13 -259 -18 -305 -12 -48 8 -115 55
-115 82 0 8 1 14 3 15 45 11 194 15 274 7 90 -9 106 -8 128 6 54 36 15 86 -68
86 -97 0 -249 41 -277 76 -12 14 -12 18 5 30 23 17 71 17 260 3 159 -11 185
-6 185 36 0 36 -28 49 -175 85 -204 49 -259 86 -208 142 67 74 240 92 578 59z
m235 -199 c0 -4 -14 -16 -31 -26 -17 -10 -28 -24 -25 -31 6 -16 -15 -25 -55
-25 -24 0 -29 4 -29 24 0 13 6 28 13 33 30 25 127 44 127 25z m620 -47 c122
-23 155 -31 350 -90 96 -29 213 -63 260 -75 47 -12 148 -45 225 -72 77 -27
202 -65 278 -84 151 -38 230 -70 340 -138 95 -59 178 -96 312 -139 128 -41
185 -63 275 -106 36 -18 130 -59 209 -93 155 -66 276 -140 386 -238 39 -34
135 -117 215 -185 80 -67 201 -180 270 -251 69 -71 184 -184 255 -252 72 -67
175 -177 230 -244 55 -67 147 -174 204 -238 195 -215 202 -222 391 -450 159
-193 195 -251 392 -630 121 -234 173 -558 149 -927 -35 -531 -75 -731 -201
-1028 -99 -231 -200 -357 -394 -490 -48 -33 -151 -104 -229 -158 -140 -96
-366 -219 -502 -272 -38 -15 -83 -33 -100 -41 -88 -38 -166 -67 -315 -117
-353 -119 -700 -228 -800 -251 -100 -24 -462 -91 -620 -116 -41 -6 -115 -17
-165 -25 -476 -76 -1117 -113 -2040 -117 -595 -2 -566 -4 -895 58 -447 85
-618 145 -970 340 -69 39 -177 96 -240 128 -143 73 -241 142 -349 248 -215
210 -356 444 -441 728 -71 241 -82 309 -88 535 -6 288 10 535 59 875 27 194
88 395 209 690 40 96 90 219 111 273 83 208 169 359 313 547 143 187 263 337
298 375 11 11 84 99 164 195 273 329 381 456 486 570 190 208 432 446 525 518
86 65 137 99 337 222 95 58 300 191 479 309 167 110 186 120 314 168 181 67
198 72 213 68 8 -2 53 -11 100 -20z m-2906 -1076 c60 -47 120 -230 156 -472
21 -140 36 -228 61 -359 11 -58 10 -70 -3 -90 -14 -21 -257 -336 -292 -379
-61 -74 -178 -260 -226 -361 -71 -150 -255 -611 -305 -767 -57 -178 -90 -334
-123 -579 l-7 -53 -59 138 c-128 301 -197 452 -246 543 -123 228 -158 310
-185 440 -15 69 -38 177 -52 240 -14 63 -27 156 -30 205 -4 80 -2 98 22 165
40 110 82 187 111 206 16 11 46 17 82 18 66 0 120 -24 194 -85 120 -100 138
-13 47 231 -50 135 -69 220 -76 351 -5 92 -3 114 17 178 35 111 67 153 142
190 68 33 143 51 182 44 62 -12 96 -82 115 -232 5 -40 14 -78 19 -83 6 -6 23
-7 37 -4 l27 7 -8 157 c-14 242 -13 256 15 286 40 43 181 81 312 85 33 1 54
-5 73 -20z m7246 -1289 c246 -41 302 -57 417 -117 244 -126 303 -303 102 -303
-56 0 -89 -19 -89 -51 0 -24 37 -49 72 -49 16 0 115 -34 221 -76 105 -41 209
-82 230 -90 92 -35 126 -52 187 -93 150 -102 195 -153 206 -235 l7 -46 -44
-19 c-26 -12 -90 -24 -153 -31 -60 -6 -113 -13 -118 -16 -16 -10 -8 -44 15
-58 12 -8 76 -33 142 -55 148 -51 164 -59 171 -87 7 -28 -33 -169 -58 -206
-30 -43 -95 -76 -177 -88 -101 -16 -220 4 -316 53 -35 18 -191 116 -267 168
-15 11 -32 19 -37 19 -16 0 -20 12 -42 122 -42 212 -80 309 -228 582 -139 257
-172 304 -448 633 -63 75 -77 100 -47 89 8 -3 123 -24 254 -46z"/>
<path d="M7610 7647 c-17 -9 -26 -22 -28 -43 -4 -37 18 -60 123 -132 216 -146
422 -318 610 -506 163 -164 246 -273 322 -421 26 -52 52 -95 57 -95 14 0 -1
79 -33 181 -73 225 -242 441 -546 695 -148 123 -212 172 -340 256 -114 76
-131 82 -165 65z"/>
<path d="M4805 7354 c-192 -49 -522 -268 -731 -485 -115 -120 -293 -354 -279
-367 3 -3 65 54 138 128 157 158 306 282 465 387 140 92 338 195 429 223 95
29 128 67 88 100 -16 13 -80 21 -110 14z"/>
<path d="M7755 6714 c-175 -24 -419 -44 -528 -44 -104 0 -106 0 -149 -33 -23
-18 -56 -52 -72 -76 -27 -40 -29 -50 -38 -204 -9 -159 -3 -356 23 -697 8 -106
15 -145 33 -180 27 -54 85 -101 163 -130 63 -24 82 -24 520 -1 168 9 191 13
295 46 121 39 138 47 171 75 12 10 32 27 44 37 26 22 40 116 53 373 13 260
-17 471 -90 625 -43 92 -95 156 -159 197 -52 33 -100 35 -266 12z m170 -188
c73 -21 82 -27 102 -62 40 -70 63 -195 74 -399 10 -199 4 -278 -28 -383 -41
-130 -112 -152 -508 -155 -128 -2 -162 2 -230 21 -84 24 -143 67 -164 121 -47
119 -76 358 -69 571 4 141 28 200 93 235 121 63 142 68 320 75 224 10 313 5
410 -24z"/>
<path d="M7827 6414 c-63 -63 -36 -179 45 -199 43 -11 125 13 148 42 40 51 21
127 -40 162 -55 31 -120 29 -153 -5z"/>
<path d="M7386 6280 c-123 -116 -152 -192 -121 -316 33 -135 117 -220 242
-245 233 -47 421 202 308 409 -35 64 -120 153 -170 177 -25 12 -70 20 -122 23
l-82 4 -55 -52z"/>
<path d="M5815 6060 c-14 -15 -19 -47 -26 -142 -20 -304 -111 -446 -366 -578
-140 -73 -189 -85 -328 -84 -104 1 -129 4 -187 27 -97 37 -154 73 -191 121
-45 56 -67 92 -67 110 0 8 -7 22 -15 30 -9 9 -35 57 -59 108 -24 51 -53 101
-64 112 -29 26 -73 24 -92 -4 -23 -33 -51 -61 -100 -100 -70 -55 -216 -198
-209 -205 4 -3 74 32 156 80 83 47 158 85 167 85 11 0 26 -20 42 -57 l25 -57
-78 -70 c-113 -103 -196 -186 -191 -192 8 -8 100 37 212 104 93 56 110 63 117
49 5 -9 25 -37 45 -62 19 -26 34 -50 32 -54 -2 -5 -25 -27 -53 -51 -94 -80
-146 -132 -143 -141 3 -9 166 67 239 112 l35 22 85 -36 c101 -43 152 -55 267
-63 106 -8 173 5 298 56 363 148 526 369 551 746 5 78 3 96 -13 123 -22 37
-61 42 -89 11z"/>
<path d="M4850 4601 c-13 -26 -13 -88 1 -96 12 -8 56 30 64 56 15 46 -43 80
-65 40z"/>
<path d="M9352 4603 c-5 -10 -8 -22 -7 -28 2 -5 6 -22 9 -37 5 -22 12 -28 32
-28 33 0 40 22 21 67 -16 42 -41 54 -55 26z"/>
<path d="M8328 4412 c-8 -9 -8 -89 2 -290 7 -152 12 -379 11 -504 -1 -193 1
-229 15 -242 12 -12 20 -13 35 -6 18 10 19 24 19 276 0 208 3 265 13 262 6 -3
27 -24 45 -49 19 -24 47 -60 63 -79 16 -19 35 -55 43 -80 8 -26 29 -77 49
-115 30 -60 70 -157 91 -218 4 -12 14 -17 28 -15 34 5 35 56 4 123 -14 29 -26
61 -26 69 0 8 -5 18 -10 21 -15 9 -57 99 -66 138 -8 37 -31 85 -50 105 -8 7
-26 30 -41 50 -15 21 -40 51 -56 68 l-28 31 24 6 c56 15 164 153 181 233 9 43
-26 132 -66 170 -64 60 -81 65 -179 62 -60 -2 -94 -7 -101 -16z m175 -46 c47
-21 85 -61 98 -106 17 -57 -3 -111 -66 -177 -43 -46 -56 -54 -90 -56 l-40 -2
-7 105 c-3 58 -9 135 -13 172 l-6 67 33 4 c18 2 39 5 46 5 7 1 27 -4 45 -12z"/>
<path d="M9672 4403 c-15 -40 -31 -157 -42 -310 -6 -73 -14 -190 -20 -260 -36
-469 -36 -463 -11 -463 22 0 20 -13 53 278 l23 202 65 -6 c111 -12 101 4 164
-239 35 -133 59 -189 80 -193 17 -4 18 1 13 41 -4 25 -21 96 -38 158 -17 63
-42 157 -54 209 -12 52 -37 145 -54 205 -17 61 -45 160 -62 220 -31 108 -70
185 -94 185 -7 0 -17 -12 -23 -27z m101 -338 c25 -88 43 -161 42 -163 -5 -5
-111 9 -123 17 -7 4 -6 51 3 161 8 85 15 162 15 170 2 26 16 -16 63 -185z"/>
<path d="M7862 4407 c-11 -13 -82 -248 -82 -271 0 -38 -127 -246 -151 -246 -5
0 -9 38 -9 84 0 113 -18 342 -31 389 -10 39 -28 47 -49 22 -9 -11 -9 -45 0
-157 8 -83 12 -284 12 -477 -1 -206 2 -341 9 -352 11 -22 34 -25 46 -6 4 6 10
97 13 201 3 121 9 191 16 193 6 2 25 -18 44 -44 19 -27 46 -63 61 -80 27 -32
35 -52 59 -158 24 -103 30 -115 55 -115 13 0 27 5 30 11 8 12 -30 189 -50 236
-13 30 -77 118 -129 177 l-26 29 35 43 c69 84 113 182 155 349 23 87 38 165
36 172 -7 17 -30 17 -44 0z"/>
<path d="M7934 4402 c-13 -9 0 -709 16 -817 18 -132 42 -177 97 -191 31 -8 53
3 73 39 20 36 4 53 -35 35 -62 -28 -72 31 -84 502 -5 206 -14 389 -19 405 -9
30 -28 41 -48 27z"/>
<path d="M8763 4398 c-6 -7 -12 -20 -15 -28 -8 -21 17 -381 36 -520 8 -63 20
-180 26 -260 14 -182 16 -190 46 -190 23 0 23 0 18 108 -5 112 -15 233 -39
442 -8 69 -16 170 -19 225 l-5 99 30 -51 c16 -28 58 -120 93 -204 80 -196 90
-217 198 -434 49 -99 96 -187 104 -195 13 -13 16 -13 25 0 5 8 7 29 4 45 -7
48 -43 392 -50 480 -3 44 -15 150 -26 235 -11 85 -23 174 -25 198 -6 47 -25
62 -50 41 -17 -14 -14 -89 12 -259 8 -52 17 -108 19 -125 2 -16 9 -79 15 -140
6 -60 18 -150 26 -198 8 -49 14 -93 12 -99 -6 -16 -107 210 -189 422 -81 209
-94 237 -157 335 -55 86 -69 98 -89 73z"/>
<path d="M9373 4394 c-3 -8 -3 -65 1 -127 3 -62 10 -242 16 -402 6 -159 14
-326 18 -370 7 -77 8 -80 32 -80 24 0 25 2 25 70 -2 265 -27 833 -41 903 -5
26 -41 31 -51 6z"/>
<path d="M3740 4384 c-41 -7 -122 -20 -180 -28 -58 -9 -150 -22 -205 -31 -55
-9 -130 -19 -167 -22 -63 -5 -68 -7 -68 -29 0 -41 79 -41 328 3 l34 6 -5 -419
c-3 -231 -8 -433 -12 -451 -6 -28 -3 -37 23 -63 18 -18 36 -28 46 -24 36 14
40 65 41 522 0 435 0 443 20 447 111 23 183 35 214 35 49 0 80 22 65 47 -14
23 -41 25 -134 7z"/>
<path d="M3969 4387 c-16 -13 -54 -196 -85 -417 -9 -63 -20 -116 -25 -118 -5
-2 -9 -20 -9 -40 0 -38 -23 -155 -59 -302 -24 -96 -26 -126 -10 -136 15 -9 31
10 35 43 4 36 61 319 72 358 8 28 13 30 93 46 46 10 100 20 120 23 l36 6 23
-83 c12 -45 40 -149 62 -232 21 -82 45 -156 53 -164 16 -16 45 -8 45 13 0 68
-208 783 -254 875 -7 14 -16 43 -20 64 -7 35 -36 77 -53 77 -5 0 -15 -6 -24
-13z m100 -325 c28 -84 51 -155 51 -158 0 -2 -11 -4 -25 -4 -14 0 -60 -7 -101
-16 -42 -8 -78 -13 -80 -11 -2 2 7 58 22 123 14 65 30 144 35 174 6 30 13 64
16 74 5 18 6 18 18 -5 7 -13 36 -93 64 -177z"/>
<path d="M8153 4384 c-8 -20 3 -190 18 -284 7 -48 11 -186 10 -382 -1 -268 1
-308 15 -322 23 -24 43 -20 75 15 36 38 36 49 4 49 l-25 0 0 288 c0 196 -5
317 -14 382 -8 52 -18 129 -22 170 -3 41 -11 81 -17 88 -13 17 -36 15 -44 -4z"/>
<path d="M6370 4378 c-19 -5 -51 -12 -70 -16 l-35 -7 2 -65 c0 -36 3 -249 5
-475 4 -407 4 -410 25 -413 12 -2 24 4 28 15 5 10 10 107 13 216 2 108 7 197
11 197 4 0 23 -28 43 -62 37 -65 61 -129 98 -258 32 -112 50 -150 72 -150 31
0 32 26 3 128 -48 169 -83 257 -141 350 -30 50 -53 95 -50 101 3 5 21 12 40
15 56 11 152 64 189 106 79 87 76 231 -6 285 -23 15 -146 46 -177 44 -8 -1
-31 -5 -50 -11z m127 -63 c38 -10 66 -24 82 -42 20 -23 22 -33 16 -77 -3 -28
-13 -61 -20 -73 -30 -45 -155 -113 -209 -113 -22 0 -23 3 -30 120 -4 66 -9
133 -12 149 -5 24 -2 29 28 38 47 16 79 15 145 -2z"/>
<path d="M6873 4375 c-120 -52 -187 -387 -133 -667 23 -119 75 -236 119 -268
78 -55 141 -29 196 83 52 106 68 195 69 377 1 133 -2 168 -23 245 -29 112 -59
173 -106 213 -39 35 -71 40 -122 17z m89 -72 c51 -55 80 -142 99 -293 33 -267
-34 -540 -132 -540 -109 0 -181 403 -120 672 26 113 67 188 104 188 13 0 35
-12 49 -27z"/>
<path d="M7270 4383 c-52 -19 -90 -102 -90 -195 0 -56 34 -146 97 -256 59
-104 84 -188 85 -285 0 -69 -2 -81 -23 -104 -49 -53 -140 -69 -186 -34 -29 23
-53 17 -53 -13 2 -93 180 -101 274 -12 89 83 69 294 -47 495 -24 42 -51 95
-60 119 -21 52 -22 141 -2 188 14 34 16 35 62 32 47 -3 47 -4 60 -47 7 -25 17
-49 22 -54 16 -16 32 31 29 80 -3 42 -6 48 -43 69 -38 22 -92 29 -125 17z"/>
<path d="M5118 4369 c-14 -6 -29 -18 -33 -27 -4 -9 -10 -82 -15 -162 -7 -127
-19 -222 -61 -480 -6 -36 -19 -106 -30 -157 -26 -116 -23 -148 11 -148 24 0
26 6 47 105 13 58 29 145 38 194 8 49 16 90 17 91 2 1 31 5 66 8 46 5 64 3 66
-6 2 -6 14 -85 26 -175 28 -209 30 -217 61 -217 33 0 35 29 11 189 -31 199
-33 221 -19 235 9 10 9 15 -4 24 -17 14 -35 75 -45 157 -12 101 -63 332 -79
356 -17 26 -18 27 -57 13z m67 -369 c9 -58 19 -115 22 -127 5 -22 2 -23 -52
-23 l-57 0 6 28 c3 15 14 95 23 179 l18 152 12 -52 c7 -29 20 -99 28 -157z"/>
<path d="M4320 4356 c-9 -12 -9 -101 -1 -393 6 -208 10 -418 10 -466 0 -49 3
-97 6 -107 7 -22 35 -34 48 -21 10 10 11 693 1 766 -6 36 -2 32 34 -40 41 -83
175 -470 187 -540 20 -120 45 -154 90 -121 36 26 43 213 23 653 -12 282 -14
292 -54 276 -14 -5 -15 -43 -10 -372 l6 -366 -49 140 c-27 77 -63 179 -80 227
-16 47 -43 113 -59 145 -16 32 -42 93 -58 135 -20 55 -35 80 -51 87 -30 14
-28 14 -43 -3z"/>
<path d="M4812 4358 c-6 -8 -11 -192 -15 -476 -4 -400 -3 -464 10 -469 36 -14
43 17 53 227 9 203 6 703 -5 721 -9 13 -31 11 -43 -3z"/>
<path d="M5945 4351 c-27 -4 -62 -13 -76 -19 -15 -6 -29 -8 -33 -5 -3 3 -15 3
-28 0 l-23 -6 1 -466 c1 -388 4 -469 16 -481 11 -12 17 -12 31 -2 17 13 21 95
27 517 0 22 2 23 49 17 119 -16 226 39 272 140 56 123 44 218 -34 279 -40 30
-112 39 -202 26z m170 -73 c15 -12 34 -36 41 -54 12 -29 11 -40 -7 -100 -35
-113 -110 -163 -228 -151 -29 3 -55 7 -56 9 -2 2 -7 67 -11 145 l-7 143 34 15
c21 9 67 14 120 15 74 0 90 -3 114 -22z"/>
<path d="M5556 3484 c-22 -21 -3 -56 27 -52 37 5 33 67 -5 68 -4 0 -14 -7 -22
-16z"/>
</g>
</svg>
