<?xml version="1.0" standalone="no"?>
<!DOCTYPE svg PUBLIC "-//W3C//DTD SVG 20010904//EN"
 "http://www.w3.org/TR/2001/REC-SVG-20010904/DTD/svg10.dtd">
<svg version="1.0" xmlns="http://www.w3.org/2000/svg"
 width="1280.000000pt" height="1000.000000pt" viewBox="0 0 1280.000000 1000.000000"
 preserveAspectRatio="xMidYMid meet">

<g transform="translate(0.000000,1000.000000) scale(0.100000,-0.100000)"
fill="#000000" stroke="none">
<path d="M4832 8355 c-212 -32 -332 -80 -379 -149 -23 -34 -28 -54 -31 -118
l-4 -77 -52 -11 c-74 -15 -148 -52 -200 -100 -137 -127 -101 -372 59 -395 l45
-7 0 -48 c0 -60 23 -83 91 -90 l49 -5 -82 -120 c-46 -66 -98 -144 -117 -172
-18 -29 -36 -53 -40 -53 -4 0 -18 12 -32 26 -96 103 -406 209 -516 176 -89
-27 -116 -115 -73 -235 23 -63 61 -130 80 -142 5 -3 14 -14 19 -24 9 -16 6
-17 -37 -10 -88 15 -163 10 -209 -12 -38 -18 -45 -27 -59 -75 -8 -30 -14 -69
-13 -87 4 -39 -2 -38 -91 11 -66 37 -139 105 -211 198 -52 68 -144 254 -160
327 -8 31 -16 57 -19 57 -13 0 -60 -59 -100 -124 -168 -277 -303 -685 -345
-1046 -19 -165 -19 -490 0 -648 104 -842 570 -1582 1290 -2051 269 -175 663
-337 965 -396 74 -14 145 -28 158 -31 l22 -4 0 -218 0 -218 -35 -17 c-46 -22
-65 -61 -41 -85 16 -16 19 -16 57 6 49 29 74 25 181 -29 85 -43 100 -46 118
-24 24 29 1 55 -84 94 l-83 38 -6 214 c-2 118 -2 217 2 220 3 3 56 2 116 -3
61 -5 177 -8 259 -6 l148 4 -6 -44 c-3 -25 -6 -96 -6 -158 l0 -113 -40 -22
c-39 -22 -59 -56 -45 -78 10 -17 41 -13 80 10 53 32 106 22 193 -35 74 -48
106 -57 116 -30 17 44 -11 74 -115 124 l-69 34 0 110 c0 61 -3 134 -6 162 l-6
51 83 12 c624 88 1207 382 1640 827 259 267 461 579 592 915 45 115 49 126 86
256 116 405 134 907 47 1318 l-15 70 41 75 c86 160 143 256 166 282 19 20 23
33 18 54 -7 25 -9 26 -53 20 -26 -3 -71 -17 -101 -31 -30 -14 -57 -23 -60 -20
-3 2 20 44 50 92 31 49 62 102 71 118 26 51 99 295 93 311 -8 21 -48 17 -128
-15 -128 -50 -258 -81 -345 -81 l-80 0 -39 63 c-188 306 -483 611 -784 811
-117 78 -198 119 -276 141 -32 9 -120 37 -194 62 -202 67 -396 110 -605 133
-55 7 -149 18 -210 26 -161 21 -615 27 -733 9z m548 -65 c91 -5 201 -15 245
-22 79 -12 80 -12 40 -21 -246 -54 -270 -62 -431 -144 -194 -97 -424 -267
-531 -390 -89 -103 -195 -213 -206 -213 -6 0 -34 -16 -63 -35 -53 -36 -78 -43
-89 -25 -14 23 11 63 72 111 54 42 64 55 61 77 -5 40 -31 38 -93 -7 -31 -21
-73 -42 -94 -46 -52 -9 -108 15 -122 52 -16 39 -13 136 5 170 48 93 210 162
313 135 53 -15 205 -15 255 -2 40 12 58 41 38 65 -10 12 -40 15 -135 15 -68 0
-130 3 -139 6 -20 8 -22 97 -3 134 35 69 185 120 427 143 77 8 294 6 450 -3z
m800 -129 c85 -16 182 -39 215 -50 33 -11 78 -23 100 -27 83 -15 278 -109 378
-182 196 -142 427 -371 579 -574 312 -418 498 -890 549 -1394 15 -154 7 -511
-16 -654 -113 -725 -497 -1361 -1079 -1789 -358 -263 -743 -425 -1191 -500
-233 -40 -583 -51 -739 -25 l-39 7 6 78 c7 91 -3 109 -59 109 -44 0 -58 -31
-51 -112 6 -69 10 -68 -139 -38 -266 54 -555 160 -789 288 -99 54 -332 205
-370 239 -11 10 -54 45 -95 78 -250 202 -516 531 -673 836 -374 721 -417 1539
-120 2279 51 125 165 355 177 355 4 0 26 -43 49 -95 55 -125 69 -148 159 -256
54 -64 95 -103 139 -130 70 -42 206 -104 230 -104 8 0 51 -23 95 -52 43 -28
101 -61 129 -73 l49 -22 -29 -16 c-44 -22 -63 -48 -71 -94 -12 -75 45 -110
207 -130 112 -13 249 12 249 47 0 23 -32 39 -63 32 -52 -11 -228 -7 -275 6
-49 15 -62 35 -38 61 32 35 93 42 222 26 66 -8 129 -15 141 -15 26 0 46 30 33
49 -4 8 -69 26 -146 42 -234 48 -372 112 -465 217 -38 44 -41 50 -35 92 3 25
14 51 23 58 21 15 143 16 215 1 71 -15 147 -47 178 -75 31 -28 246 -137 260
-132 16 5 -26 55 -60 73 -15 8 -34 20 -42 28 -7 7 -44 37 -83 67 -209 161
-295 272 -295 381 0 64 17 79 87 79 113 0 302 -73 398 -153 123 -102 261 -240
323 -322 25 -33 70 -87 99 -121 29 -34 53 -66 53 -71 0 -5 12 -16 26 -23 22
-12 27 -12 34 0 16 25 11 38 -35 92 -24 29 -70 87 -101 128 -31 41 -102 121
-156 176 -116 118 -117 86 5 269 275 412 369 524 572 685 280 221 491 320 825
384 68 13 301 -4 450 -33z m1935 -1123 c-36 -99 -64 -152 -136 -261 -34 -50
-61 -102 -61 -114 3 -47 -16 -29 -42 40 -15 40 -54 127 -87 194 -32 68 -59
124 -59 126 0 3 30 7 68 9 69 5 132 21 262 68 41 14 76 23 78 19 2 -5 -8 -41
-23 -81z m-20 -415 c-3 -10 -32 -61 -63 -113 l-56 -94 -33 99 c-18 55 -33 101
-33 102 0 1 13 -4 29 -10 23 -9 39 -7 82 11 68 26 83 27 74 5z"/>
<path d="M5430 7786 c-173 -91 -310 -282 -340 -472 -5 -32 -14 -235 -21 -450
l-12 -391 27 -81 c36 -108 93 -172 197 -223 81 -40 120 -50 309 -76 177 -24
805 -23 864 2 84 36 211 187 235 280 14 58 16 76 37 535 25 519 27 478 -26
595 -36 82 -55 111 -106 160 -37 37 -88 74 -130 94 -69 34 -70 35 -259 43
-104 4 -307 10 -450 13 l-260 5 -65 -34z m722 -107 c81 -19 90 -24 165 -89 90
-78 143 -149 196 -266 62 -134 79 -211 80 -354 1 -146 -15 -223 -73 -345 -122
-258 -362 -414 -636 -415 -330 -1 -617 252 -685 602 -17 90 -12 254 11 341 69
261 237 447 484 533 67 23 79 24 221 19 94 -4 183 -14 237 -26z"/>
<path d="M6209 7388 c-47 -51 -49 -121 -2 -158 62 -48 143 5 143 94 0 75 -91
116 -141 64z"/>
<path d="M5830 7194 c-109 -40 -171 -96 -195 -178 -19 -63 -19 -80 1 -147 12
-41 28 -66 68 -105 184 -179 492 -66 474 173 -2 32 -12 74 -21 93 -26 53 -85
110 -143 137 -50 22 -154 38 -184 27z"/>
<path d="M5736 5884 c-20 -20 -21 -64 -1 -90 14 -18 16 -18 29 -1 7 9 18 17
24 17 12 0 32 31 32 49 0 16 -30 41 -50 41 -10 0 -26 -7 -34 -16z"/>
<path d="M4405 5703 c-22 -2 -77 -8 -121 -13 -134 -17 -502 -52 -614 -59 -89
-5 -105 -9 -108 -23 -7 -37 40 -42 247 -24 106 10 195 15 197 13 11 -11 7
-640 -5 -741 l-12 -109 27 -28 c52 -55 91 -32 104 61 15 102 24 770 11 803 -6
15 -9 27 -8 27 1 0 72 9 157 20 85 11 170 20 188 20 39 0 55 26 27 46 -10 8
-26 13 -34 12 -9 -1 -34 -3 -56 -5z"/>
<path d="M4612 5688 c-11 -14 -72 -275 -96 -405 -8 -46 -21 -90 -30 -99 -10
-10 -14 -24 -10 -39 3 -13 -3 -52 -14 -87 -29 -89 -92 -303 -92 -310 0 -10 29
-18 45 -12 8 4 15 17 15 30 0 12 11 58 24 101 14 43 34 120 46 171 18 76 26
95 44 102 24 9 286 44 291 38 7 -6 133 -363 139 -394 7 -30 39 -74 54 -74 5 0
16 6 26 13 16 12 15 21 -28 147 -108 320 -193 535 -258 659 -16 29 -36 74 -44
100 -18 53 -37 71 -75 71 -14 0 -31 -6 -37 -12z m96 -205 c50 -107 102 -232
102 -244 0 -5 -15 -9 -32 -9 -18 0 -76 -7 -128 -14 -52 -8 -96 -13 -97 -12 -6
5 100 366 107 366 4 0 25 -39 48 -87z"/>
<path d="M5062 5658 c-14 -14 -16 -134 -3 -193 5 -22 12 -192 15 -377 3 -185
9 -343 12 -351 7 -20 27 -27 54 -20 l23 6 -6 351 c-3 193 -9 361 -13 374 -3
12 -2 22 2 22 36 -2 270 -503 289 -618 9 -59 43 -97 78 -88 14 3 32 13 40 21
21 20 31 209 23 415 -18 470 -17 466 -68 458 -23 -3 -23 -5 -23 -123 0 -66 5
-223 9 -349 7 -160 6 -227 -1 -223 -6 4 -22 36 -37 72 -45 112 -157 348 -192
403 -19 29 -52 88 -74 132 -29 57 -48 84 -66 90 -33 13 -47 13 -62 -2z"/>
<path d="M5682 5648 c-9 -9 -12 -89 -12 -327 0 -174 -5 -367 -10 -430 -12
-128 -5 -149 43 -137 23 5 26 12 33 83 5 43 9 245 9 448 l0 370 -25 3 c-14 2
-31 -3 -38 -10z"/>
<path d="M6053 5650 c-26 -11 -39 -69 -47 -213 -3 -53 -14 -137 -25 -185 -10
-48 -27 -125 -36 -172 -18 -87 -32 -142 -59 -240 -21 -73 -20 -97 4 -110 26
-14 60 3 60 29 0 11 10 50 22 87 12 38 31 112 42 164 l21 95 85 0 85 0 7 -40
c28 -162 63 -322 71 -333 6 -7 19 -12 30 -10 39 6 42 29 18 155 -40 205 -43
233 -29 250 10 12 8 18 -9 31 -22 17 -35 55 -58 171 -18 95 -73 288 -87 311
-14 21 -56 26 -95 10z m101 -340 c13 -63 26 -122 27 -130 3 -12 -10 -16 -63
-18 -77 -3 -75 -5 -54 78 16 64 27 138 27 195 1 22 3 49 6 60 7 26 24 -29 57
-185z"/>
<path d="M6622 4808 c-29 -29 4 -63 46 -47 33 12 27 53 -8 57 -14 2 -31 -3
-38 -10z"/>
<path d="M5855 4602 c-3 -15 -1 -78 5 -140 6 -62 10 -225 11 -362 0 -138 2
-257 5 -265 4 -8 15 -15 25 -15 18 0 19 12 21 213 l3 212 57 -71 c31 -40 60
-85 64 -100 4 -16 21 -58 39 -94 18 -36 36 -76 40 -89 20 -65 35 -90 50 -85 8
4 15 16 15 28 0 24 -34 116 -54 149 -8 12 -24 51 -37 87 -14 40 -44 90 -76
130 -47 59 -51 66 -35 77 108 75 153 172 118 254 -8 20 -33 51 -55 68 -36 28
-45 31 -114 31 -74 0 -75 0 -82 -28z m160 -30 c34 -28 55 -65 55 -95 0 -62
-74 -157 -121 -157 -25 0 -28 4 -33 43 -11 89 -17 207 -11 217 10 16 88 11
110 -8z"/>
<path d="M6871 4613 c-11 -23 -27 -156 -41 -353 -6 -85 -15 -207 -20 -270 -13
-157 -13 -170 5 -170 8 0 15 6 15 13 0 15 41 351 43 354 1 0 29 -2 62 -5 l60
-7 41 -145 c47 -163 53 -180 64 -180 20 0 16 24 -30 205 -135 530 -166 619
-199 558z m80 -279 c16 -56 29 -105 29 -108 0 -10 -34 -7 -70 5 l-32 12 6 111
c9 138 16 165 29 116 5 -19 23 -81 38 -136z"/>
<path d="M5502 4593 c-6 -16 -23 -71 -37 -123 -26 -94 -67 -182 -106 -229 -11
-13 -21 -22 -23 -20 -2 2 -9 85 -15 184 -12 184 -22 225 -50 191 -9 -11 -9
-38 -1 -116 5 -56 10 -223 10 -370 0 -263 4 -300 31 -273 6 6 13 76 16 157 3
80 10 146 14 146 4 0 28 -27 54 -61 36 -48 50 -78 66 -142 21 -84 38 -115 58
-103 15 10 14 29 -9 121 -17 65 -30 92 -75 151 -30 39 -55 75 -55 79 0 4 13
24 29 44 15 20 40 59 53 86 25 49 78 244 78 285 0 29 -26 24 -38 -7z"/>
<path d="M5566 4611 c-3 -4 -3 -141 -1 -303 6 -381 21 -457 91 -471 17 -3 29
2 39 17 24 34 19 49 -14 41 -24 -5 -32 -2 -42 16 -14 26 -28 262 -29 479 0 80
-3 162 -6 182 -6 35 -27 57 -38 39z"/>
<path d="M6643 4605 c-3 -9 -3 -55 1 -103 3 -48 10 -206 15 -350 6 -145 13
-273 16 -283 4 -11 14 -19 23 -17 14 3 16 22 14 158 -3 167 -18 472 -28 558
-4 35 -11 52 -20 52 -8 0 -17 -7 -21 -15z"/>
<path d="M5734 4598 c-10 -15 -6 -147 4 -163 4 -5 9 -143 12 -305 5 -276 6
-295 23 -298 18 -4 67 33 67 50 0 4 -9 8 -19 8 -18 0 -19 13 -25 268 -7 345
-28 495 -62 440z"/>
<path d="M6177 4588 c-6 -23 16 -332 32 -453 5 -38 13 -114 16 -168 7 -112 11
-127 32 -127 18 0 15 91 -12 380 -19 212 -23 280 -13 274 14 -9 42 -71 97
-209 70 -180 208 -458 223 -452 14 4 13 16 -2 152 -5 44 -16 154 -25 245 -8
91 -19 189 -25 219 -5 29 -10 74 -10 98 0 30 -5 45 -16 50 -41 15 -39 -17 22
-482 8 -60 14 -116 14 -125 -1 -27 -49 75 -115 248 -79 202 -86 219 -136 305
-42 70 -71 87 -82 45z"/>
<path d="M4380 4590 c-8 -5 -26 -10 -40 -10 l-26 0 3 -352 c2 -194 3 -359 3
-365 0 -16 26 -17 36 -1 4 7 10 80 13 163 l6 150 31 -47 c18 -27 45 -96 64
-160 18 -62 37 -121 42 -130 8 -17 48 -26 48 -10 0 4 -18 68 -41 142 -29 96
-53 155 -86 208 -37 60 -43 76 -32 83 8 5 21 9 29 9 28 0 118 59 145 94 51 67
41 176 -19 204 -65 31 -146 41 -176 22z m104 -42 c61 -17 76 -34 76 -84 0 -67
-64 -129 -156 -148 l-31 -7 -6 68 c-4 37 -7 91 -7 120 0 46 3 52 23 56 41 8
59 7 101 -5z"/>
<path d="M4746 4573 c-58 -58 -87 -165 -88 -329 0 -125 15 -216 49 -291 25
-53 73 -103 100 -103 32 0 72 35 96 84 41 82 52 149 52 301 0 149 -17 226 -66
309 -37 63 -97 76 -143 29z m97 -42 c82 -98 97 -441 26 -583 -27 -54 -54 -66
-85 -37 -95 90 -111 474 -24 614 26 43 50 44 83 6z"/>
<path d="M5041 4578 c-60 -64 -54 -154 21 -308 92 -187 101 -289 29 -337 -40
-27 -87 -30 -112 -7 -21 19 -39 11 -39 -16 0 -47 83 -64 156 -31 117 53 120
189 9 415 -58 119 -69 175 -43 231 10 22 17 26 46 23 30 -3 37 -8 46 -35 6
-17 14 -35 18 -39 12 -11 29 45 22 71 -13 51 -116 73 -153 33z"/>
<path d="M4045 4570 c-11 -5 -35 -9 -52 -9 -18 -1 -33 -4 -34 -8 -3 -40 -4
-711 -1 -720 2 -7 13 -13 23 -13 21 0 24 40 24 300 l0 115 46 -3 c67 -5 121
13 160 52 35 36 67 111 68 160 1 41 -37 103 -75 121 -34 16 -126 19 -159 5z
m144 -45 c46 -23 57 -63 35 -130 -24 -78 -65 -109 -144 -110 -32 0 -60 2 -63
5 -3 3 -8 53 -12 112 l-7 106 28 16 c37 19 126 20 163 1z"/>
</g>
</svg>
