<svg version="1.0" xmlns="http://www.w3.org/2000/svg" width="1706.667" height="1333.333" viewBox="0 0 1280 1000"><path d="M483.2 164.5c-21.2 3.2-33.2 8-37.9 14.9-2.3 3.4-2.8 5.4-3.1 11.8l-.4 7.7-5.2 1.1c-7.4 1.5-14.8 5.2-20 10-13.7 12.7-10.1 37.2 5.9 39.5l4.5.7v4.8c0 6 2.3 8.3 9.1 9l4.9.5-8.2 12c-4.6 6.6-9.8 14.4-11.7 17.2-1.8 2.9-3.6 5.3-4 5.3-.4 0-1.8-1.2-3.2-2.6-9.6-10.3-40.6-20.9-51.6-17.6-8.9 2.7-11.6 11.5-7.3 23.5 2.3 6.3 6.1 13 8 14.2.5.3 1.4 1.4 1.9 2.4.9 1.6.6 1.7-3.7 1-8.8-1.5-16.3-1-20.9 1.2-3.8 1.8-4.5 2.7-5.9 7.5-.8 3-1.4 6.9-1.3 8.7.4 3.9-.2 3.8-9.1-1.1-6.6-3.7-13.9-10.5-21.1-19.8-5.2-6.8-14.4-25.4-16-32.7-.8-3.1-1.6-5.7-1.9-5.7-1.3 0-6 5.9-10 12.4-16.8 27.7-30.3 68.5-34.5 104.6-1.9 16.5-1.9 49 0 64.8 10.4 84.2 57 158.2 129 205.1 26.9 17.5 66.3 33.7 96.5 39.6 7.4 1.4 14.5 2.8 15.8 3.1l2.2.4v43.6l-3.5 1.7c-4.6 2.2-6.5 6.1-4.1 8.5 1.6 1.6 1.9 1.6 5.7-.6 4.9-2.9 7.4-2.5 18.1 2.9 8.5 4.3 10 4.6 11.8 2.4 2.4-2.9.1-5.5-8.4-9.4l-8.3-3.8-.6-21.4c-.2-11.8-.2-21.7.2-22 .3-.3 5.6-.2 11.6.3 6.1.5 17.7.8 25.9.6l14.8-.4-.6 4.4c-.3 2.5-.6 9.6-.6 15.8v11.3l-4 2.2c-3.9 2.2-5.9 5.6-4.5 7.8 1 1.7 4.1 1.3 8-1 5.3-3.2 10.6-2.2 19.3 3.5 7.4 4.8 10.6 5.7 11.6 3 1.7-4.4-1.1-7.4-11.5-12.4l-6.9-3.4v-11c0-6.1-.3-13.4-.6-16.2l-.6-5.1 8.3-1.2c62.4-8.8 120.7-38.2 164-82.7 25.9-26.7 46.1-57.9 59.2-91.5 4.5-11.5 4.9-12.6 8.6-25.6 11.6-40.5 13.4-90.7 4.7-131.8l-1.5-7 4.1-7.5c8.6-16 14.3-25.6 16.6-28.2 1.9-2 2.3-3.3 1.8-5.4-.7-2.5-.9-2.6-5.3-2-2.6.3-7.1 1.7-10.1 3.1-3 1.4-5.7 2.3-6 2-.3-.2 2-4.4 5-9.2 3.1-4.9 6.2-10.2 7.1-11.8 2.6-5.1 9.9-29.5 9.3-31.1-.8-2.1-4.8-1.7-12.8 1.5-12.8 5-25.8 8.1-34.5 8.1h-8l-3.9-6.3c-18.8-30.6-48.3-61.1-78.4-81.1-11.7-7.8-19.8-11.9-27.6-14.1-3.2-.9-12-3.7-19.4-6.2-20.2-6.7-39.6-11-60.5-13.3-5.5-.7-14.9-1.8-21-2.6-16.1-2.1-61.5-2.7-73.3-.9zM538 171c9.1.5 20.1 1.5 24.5 2.2 7.9 1.2 8 1.2 4 2.1-24.6 5.4-27 6.2-43.1 14.4-19.4 9.7-42.4 26.7-53.1 39-8.9 10.3-19.5 21.3-20.6 21.3-.6 0-3.4 1.6-6.3 3.5-5.3 3.6-7.8 4.3-8.9 2.5-1.4-2.3 1.1-6.3 7.2-11.1 5.4-4.2 6.4-5.5 6.1-7.7-.5-4-3.1-3.8-9.3.7-3.1 2.1-7.3 4.2-9.4 4.6-5.2.9-10.8-1.5-12.2-5.2-1.6-3.9-1.3-13.6.5-17 4.8-9.3 21-16.2 31.3-13.5 5.3 1.5 20.5 1.5 25.5.2 4-1.2 5.8-4.1 3.8-6.5-1-1.2-4-1.5-13.5-1.5-6.8 0-13-.3-13.9-.6-2-.8-2.2-9.7-.3-13.4 3.5-6.9 18.5-12 42.7-14.3 7.7-.8 29.4-.6 45 .3zm80 12.9c8.5 1.6 18.2 3.9 21.5 5 3.3 1.1 7.8 2.3 10 2.7 8.3 1.5 27.8 10.9 37.8 18.2 19.6 14.2 42.7 37.1 57.9 57.4 31.2 41.8 49.8 89 54.9 139.4 1.5 15.4.7 51.1-1.6 65.4-11.3 72.5-49.7 136.1-107.9 178.9-35.8 26.3-74.3 42.5-119.1 50-23.3 4-58.3 5.1-73.9 2.5l-3.9-.7.6-7.8c.7-9.1-.3-10.9-5.9-10.9-4.4 0-5.8 3.1-5.1 11.2.6 6.9 1 6.8-13.9 3.8-26.6-5.4-55.5-16-78.9-28.8-9.9-5.4-33.2-20.5-37-23.9-1.1-1-5.4-4.5-9.5-7.8-25-20.2-51.6-53.1-67.3-83.6-37.4-72.1-41.7-153.9-12-227.9 5.1-12.5 16.5-35.5 17.7-35.5.4 0 2.6 4.3 4.9 9.5 5.5 12.5 6.9 14.8 15.9 25.6 5.4 6.4 9.5 10.3 13.9 13 7 4.2 20.6 10.4 23 10.4.8 0 5.1 2.3 9.5 5.2 4.3 2.8 10.1 6.1 12.9 7.3l4.9 2.2-2.9 1.6c-4.4 2.2-6.3 4.8-7.1 9.4-1.2 7.5 4.5 11 20.7 13 11.2 1.3 24.9-1.2 24.9-4.7 0-2.3-3.2-3.9-6.3-3.2-5.2 1.1-22.8.7-27.5-.6-4.9-1.5-6.2-3.5-3.8-6.1 3.2-3.5 9.3-4.2 22.2-2.6 6.6.8 12.9 1.5 14.1 1.5 2.6 0 4.6-3 3.3-4.9-.4-.8-6.9-2.6-14.6-4.2-23.4-4.8-37.2-11.2-46.5-21.7-3.8-4.4-4.1-5-3.5-9.2.3-2.5 1.4-5.1 2.3-5.8 2.1-1.5 14.3-1.6 21.5-.1 7.1 1.5 14.7 4.7 17.8 7.5 3.1 2.8 24.6 13.7 26 13.2 1.6-.5-2.6-5.5-6-7.3-1.5-.8-3.4-2-4.2-2.8-.7-.7-4.4-3.7-8.3-6.7-20.9-16.1-29.5-27.2-29.5-38.1 0-6.4 1.7-7.9 8.7-7.9 11.3 0 30.2 7.3 39.8 15.3 12.3 10.2 26.1 24 32.3 32.2 2.5 3.3 7 8.7 9.9 12.1 2.9 3.4 5.3 6.6 5.3 7.1s1.2 1.6 2.6 2.3c2.2 1.2 2.7 1.2 3.4 0 1.6-2.5 1.1-3.8-3.5-9.2-2.4-2.9-7-8.7-10.1-12.8-3.1-4.1-10.2-12.1-15.6-17.6-11.6-11.8-11.7-8.6.5-26.9 27.5-41.2 36.9-52.4 57.2-68.5 28-22.1 49.1-32 82.5-38.4 6.8-1.3 30.1.4 45 3.3zm193.5 112.3c-3.6 9.9-6.4 15.2-13.6 26.1-3.4 5-6.1 10.2-6.1 11.4.3 4.7-1.6 2.9-4.2-4-1.5-4-5.4-12.7-8.7-19.4-3.2-6.8-5.9-12.4-5.9-12.6 0-.3 3-.7 6.8-.9 6.9-.5 13.2-2.1 26.2-6.8 4.1-1.4 7.6-2.3 7.8-1.9.2.5-.8 4.1-2.3 8.1zm-2 41.5c-.3 1-3.2 6.1-6.3 11.3l-5.6 9.4-3.3-9.9c-1.8-5.5-3.3-10.1-3.3-10.2 0-.1 1.3.4 2.9 1 2.3.9 3.9.7 8.2-1.1 6.8-2.6 8.3-2.7 7.4-.5z"/><path d="M543 221.4c-17.3 9.1-31 28.2-34 47.2-.5 3.2-1.4 23.5-2.1 45l-1.2 39.1 2.7 8.1c3.6 10.8 9.3 17.2 19.7 22.3 8.1 4 12 5 30.9 7.6 17.7 2.4 80.5 2.3 86.4-.2 8.4-3.6 21.1-18.7 23.5-28 1.4-5.8 1.6-7.6 3.7-53.5 2.5-51.9 2.7-47.8-2.6-59.5-3.6-8.2-5.5-11.1-10.6-16-3.7-3.7-8.8-7.4-13-9.4-6.9-3.4-7-3.5-25.9-4.3-10.4-.4-30.7-1-45-1.3l-26-.5-6.5 3.4zm72.2 10.7c8.1 1.9 9 2.4 16.5 8.9 9 7.8 14.3 14.9 19.6 26.6 6.2 13.4 7.9 21.1 8 35.4.1 14.6-1.5 22.3-7.3 34.5-12.2 25.8-36.2 41.4-63.6 41.5-33 .1-61.7-25.2-68.5-60.2-1.7-9-1.2-25.4 1.1-34.1 6.9-26.1 23.7-44.7 48.4-53.3 6.7-2.3 7.9-2.4 22.1-1.9 9.4.4 18.3 1.4 23.7 2.6z"/><path d="M620.9 261.2c-4.7 5.1-4.9 12.1-.2 15.8 6.2 4.8 14.3-.5 14.3-9.4 0-7.5-9.1-11.6-14.1-6.4zM583 280.6c-10.9 4-17.1 9.6-19.5 17.8-1.9 6.3-1.9 8 .1 14.7 1.2 4.1 2.8 6.6 6.8 10.5 18.4 17.9 49.2 6.6 47.4-17.3-.2-3.2-1.2-7.4-2.1-9.3-2.6-5.3-8.5-11-14.3-13.7-5-2.2-15.4-3.8-18.4-2.7zM573.6 411.6c-2 2-2.1 6.4-.1 9 1.4 1.8 1.6 1.8 2.9.1.7-.9 1.8-1.7 2.4-1.7 1.2 0 3.2-3.1 3.2-4.9 0-1.6-3-4.1-5-4.1-1 0-2.6.7-3.4 1.6zM440.5 429.7c-2.2.2-7.7.8-12.1 1.3-13.4 1.7-50.2 5.2-61.4 5.9-8.9.5-10.5.9-10.8 2.3-.7 3.7 4 4.2 24.7 2.4 10.6-1 19.5-1.5 19.7-1.3 1.1 1.1.7 64-.5 74.1l-1.2 10.9 2.7 2.8c5.2 5.5 9.1 3.2 10.4-6.1 1.5-10.2 2.4-77 1.1-80.3-.6-1.5-.9-2.7-.8-2.7.1 0 7.2-.9 15.7-2s17-2 18.8-2c3.9 0 5.5-2.6 2.7-4.6-1-.8-2.6-1.3-3.4-1.2-.9.1-3.4.3-5.6.5zM461.2 431.2c-1.1 1.4-7.2 27.5-9.6 40.5-.8 4.6-2.1 9-3 9.9-1 1-1.4 2.4-1 3.9.3 1.3-.3 5.2-1.4 8.7-2.9 8.9-9.2 30.3-9.2 31 0 1 2.9 1.8 4.5 1.2.8-.4 1.5-1.7 1.5-3 0-1.2 1.1-5.8 2.4-10.1 1.4-4.3 3.4-12 4.6-17.1 1.8-7.6 2.6-9.5 4.4-10.2 2.4-.9 28.6-4.4 29.1-3.8.7.6 13.3 36.3 13.9 39.4.7 3 3.9 7.4 5.4 7.4.5 0 1.6-.6 2.6-1.3 1.6-1.2 1.5-2.1-2.8-14.7-10.8-32-19.3-53.5-25.8-65.9-1.6-2.9-3.6-7.4-4.4-10-1.8-5.3-3.7-7.1-7.5-7.1-1.4 0-3.1.6-3.7 1.2zm9.6 20.5c5 10.7 10.2 23.2 10.2 24.4 0 .5-1.5.9-3.2.9-1.8 0-7.6.7-12.8 1.4-5.2.8-9.6 1.3-9.7 1.2-.6-.5 10-36.6 10.7-36.6.4 0 2.5 3.9 4.8 8.7zM506.2 434.2c-1.4 1.4-1.6 13.4-.3 19.3.5 2.2 1.2 19.2 1.5 37.7.3 18.5.9 34.3 1.2 35.1.7 2 2.7 2.7 5.4 2l2.3-.6-.6-35.1c-.3-19.3-.9-36.1-1.3-37.4-.3-1.2-.2-2.2.2-2.2 3.6.2 27 50.3 28.9 61.8.9 5.9 4.3 9.7 7.8 8.8 1.4-.3 3.2-1.3 4-2.1 2.1-2 3.1-20.9 2.3-41.5-1.8-47-1.7-46.6-6.8-45.8-2.3.3-2.3.5-2.3 12.3 0 6.6.5 22.3.9 34.9.7 16 .6 22.7-.1 22.3-.6-.4-2.2-3.6-3.7-7.2-4.5-11.2-15.7-34.8-19.2-40.3-1.9-2.9-5.2-8.8-7.4-13.2-2.9-5.7-4.8-8.4-6.6-9-3.3-1.3-4.7-1.3-6.2.2zM568.2 435.2c-.9.9-1.2 8.9-1.2 32.7 0 17.4-.5 36.7-1 43-1.2 12.8-.5 14.9 4.3 13.7 2.3-.5 2.6-1.2 3.3-8.3.5-4.3.9-24.5.9-44.8v-37l-2.5-.3c-1.4-.2-3.1.3-3.8 1zM605.3 435c-2.6 1.1-3.9 6.9-4.7 21.3-.3 5.3-1.4 13.7-2.5 18.5-1 4.8-2.7 12.5-3.6 17.2-1.8 8.7-3.2 14.2-5.9 24-2.1 7.3-2 9.7.4 11 2.6 1.4 6-.3 6-2.9 0-1.1 1-5 2.2-8.7 1.2-3.8 3.1-11.2 4.2-16.4l2.1-9.5h17l.7 4c2.8 16.2 6.3 32.2 7.1 33.3.6.7 1.9 1.2 3 1 3.9-.6 4.2-2.9 1.8-15.5-4-20.5-4.3-23.3-2.9-25 1-1.2.8-1.8-.9-3.1-2.2-1.7-3.5-5.5-5.8-17.1-1.8-9.5-7.3-28.8-8.7-31.1-1.4-2.1-5.6-2.6-9.5-1zm10.1 34c1.3 6.3 2.6 12.2 2.7 13 .3 1.2-1 1.6-6.3 1.8-7.7.3-7.5.5-5.4-7.8 1.6-6.4 2.7-13.8 2.7-19.5.1-2.2.3-4.9.6-6 .7-2.6 2.4 2.9 5.7 18.5zM662.2 519.2c-2.9 2.9.4 6.3 4.6 4.7 3.3-1.2 2.7-5.3-.8-5.7-1.4-.2-3.1.3-3.8 1zM585.5 539.8c-.3 1.5-.1 7.8.5 14s1 22.5 1.1 36.2c0 13.8.2 25.7.5 26.5.4.8 1.5 1.5 2.5 1.5 1.8 0 1.9-1.2 2.1-21.3l.3-21.2 5.7 7.1c3.1 4 6 8.5 6.4 10 .4 1.6 2.1 5.8 3.9 9.4 1.8 3.6 3.6 7.6 4 8.9 2 6.5 3.5 9 5 8.5.8-.4 1.5-1.6 1.5-2.8 0-2.4-3.4-11.6-5.4-14.9-.8-1.2-2.4-5.1-3.7-8.7-1.4-4-4.4-9-7.6-13-4.7-5.9-5.1-6.6-3.5-7.7 10.8-7.5 15.3-17.2 11.8-25.4-.8-2-3.3-5.1-5.5-6.8-3.6-2.8-4.5-3.1-11.4-3.1-7.4 0-7.5 0-8.2 2.8zm16 3c3.4 2.8 5.5 6.5 5.5 9.5 0 6.2-7.4 15.7-12.1 15.7-2.5 0-2.8-.4-3.3-4.3-1.1-8.9-1.7-20.7-1.1-21.7 1-1.6 8.8-1.1 11 .8zM687.1 538.7c-1.1 2.3-2.7 15.6-4.1 35.3-.6 8.5-1.5 20.7-2 27-1.3 15.7-1.3 17 .5 17 .8 0 1.5-.6 1.5-1.3 0-1.5 4.1-35.1 4.3-35.4.1 0 2.9.2 6.2.5l6 .7 4.1 14.5c4.7 16.3 5.3 18 6.4 18 2 0 1.6-2.4-3-20.5-13.5-53-16.6-61.9-19.9-55.8zm8 27.9c1.6 5.6 2.9 10.5 2.9 10.8 0 1-3.4.7-7-.5l-3.2-1.2.6-11.1c.9-13.8 1.6-16.5 2.9-11.6.5 1.9 2.3 8.1 3.8 13.6zM550.2 540.7c-.6 1.6-2.3 7.1-3.7 12.3-2.6 9.4-6.7 18.2-10.6 22.9-1.1 1.3-2.1 2.2-2.3 2-.2-.2-.9-8.5-1.5-18.4-1.2-18.4-2.2-22.5-5-19.1-.9 1.1-.9 3.8-.1 11.6.5 5.6 1 22.3 1 37 0 26.3.4 30 3.1 27.3.6-.6 1.3-7.6 1.6-15.7.3-8 1-14.6 1.4-14.6.4 0 2.8 2.7 5.4 6.1 3.6 4.8 5 7.8 6.6 14.2 2.1 8.4 3.8 11.5 5.8 10.3 1.5-1 1.4-2.9-.9-12.1-1.7-6.5-3-9.2-7.5-15.1-3-3.9-5.5-7.5-5.5-7.9 0-.4 1.3-2.4 2.9-4.4 1.5-2 4-5.9 5.3-8.6 2.5-4.9 7.8-24.4 7.8-28.5 0-2.9-2.6-2.4-3.8.7zM556.6 538.9c-.3.4-.3 14.1-.1 30.3.6 38.1 2.1 45.7 9.1 47.1 1.7.3 2.9-.2 3.9-1.7 2.4-3.4 1.9-4.9-1.4-4.1-2.4.5-3.2.2-4.2-1.6-1.4-2.6-2.8-26.2-2.9-47.9 0-8-.3-16.2-.6-18.2-.6-3.5-2.7-5.7-3.8-3.9zM664.3 539.5c-.3.9-.3 5.5.1 10.3.3 4.8 1 20.6 1.5 35 .6 14.5 1.3 27.3 1.6 28.3.4 1.1 1.4 1.9 2.3 1.7 1.4-.3 1.6-2.2 1.4-15.8-.3-16.7-1.8-47.2-2.8-55.8-.4-3.5-1.1-5.2-2-5.2-.8 0-1.7.7-2.1 1.5zM573.4 540.2c-1 1.5-.6 14.7.4 16.3.4.5.9 14.3 1.2 30.5.5 27.6.6 29.5 2.3 29.8 1.8.4 6.7-3.3 6.7-5 0-.4-.9-.8-1.9-.8-1.8 0-1.9-1.3-2.5-26.8-.7-34.5-2.8-49.5-6.2-44zM617.7 541.2c-.6 2.3 1.6 33.2 3.2 45.3.5 3.8 1.3 11.4 1.6 16.8.7 11.2 1.1 12.7 3.2 12.7 1.8 0 1.5-9.1-1.2-38-1.9-21.2-2.3-28-1.3-27.4 1.4.9 4.2 7.1 9.7 20.9 7 18 20.8 45.8 22.3 45.2 1.4-.4 1.3-1.6-.2-15.2-.5-4.4-1.6-15.4-2.5-24.5-.8-9.1-1.9-18.9-2.5-21.9-.5-2.9-1-7.4-1-9.8 0-3-.5-4.5-1.6-5-4.1-1.5-3.9 1.7 2.2 48.2.8 6 1.4 11.6 1.4 12.5-.1 2.7-4.9-7.5-11.5-24.8-7.9-20.2-8.6-21.9-13.6-30.5-4.2-7-7.1-8.7-8.2-4.5zM438 541c-.8.5-2.6 1-4 1h-2.6l.3 35.2c.2 19.4.3 35.9.3 36.5 0 1.6 2.6 1.7 3.6.1.4-.7 1-8 1.3-16.3l.6-15 3.1 4.7c1.8 2.7 4.5 9.6 6.4 16 1.8 6.2 3.7 12.1 4.2 13 .8 1.7 4.8 2.6 4.8 1 0-.4-1.8-6.8-4.1-14.2-2.9-9.6-5.3-15.5-8.6-20.8-3.7-6-4.3-7.6-3.2-8.3.8-.5 2.1-.9 2.9-.9 2.8 0 11.8-5.9 14.5-9.4 5.1-6.7 4.1-17.6-1.9-20.4-6.5-3.1-14.6-4.1-17.6-2.2zm10.4 4.2c6.1 1.7 7.6 3.4 7.6 8.4 0 6.7-6.4 12.9-15.6 14.8l-3.1.7-.6-6.8c-.4-3.7-.7-9.1-.7-12 0-4.6.3-5.2 2.3-5.6 4.1-.8 5.9-.7 10.1.5zM474.6 542.7c-5.8 5.8-8.7 16.5-8.8 32.9 0 12.5 1.5 21.6 4.9 29.1 2.5 5.3 7.3 10.3 10 10.3 3.2 0 7.2-3.5 9.6-8.4 4.1-8.2 5.2-14.9 5.2-30.1 0-14.9-1.7-22.6-6.6-30.9-3.7-6.3-9.7-7.6-14.3-2.9zm9.7 4.2c8.2 9.8 9.7 44.1 2.6 58.3-2.7 5.4-5.4 6.6-8.5 3.7-9.5-9-11.1-47.4-2.4-61.4 2.6-4.3 5-4.4 8.3-.6zM504.1 542.2c-6 6.4-5.4 15.4 2.1 30.8 9.2 18.7 10.1 28.9 2.9 33.7-4 2.7-8.7 3-11.2.7-2.1-1.9-3.9-1.1-3.9 1.6 0 4.7 8.3 6.4 15.6 3.1 11.7-5.3 12-18.9.9-41.5-5.8-11.9-6.9-17.5-4.3-23.1 1-2.2 1.7-2.6 4.6-2.3 3 .3 3.7.8 4.6 3.5.6 1.7 1.4 3.5 1.8 3.9 1.2 1.1 2.9-4.5 2.2-7.1-1.3-5.1-11.6-7.3-15.3-3.3zM404.5 543c-1.1.5-3.5.9-5.2.9-1.8.1-3.3.4-3.4.8-.3 4-.4 71.1-.1 72 .2.7 1.3 1.3 2.3 1.3 2.1 0 2.4-4 2.4-30v-11.5l4.6.3c6.7.5 12.1-1.3 16-5.2 3.5-3.6 6.7-11.1 6.8-16 .1-4.1-3.7-10.3-7.5-12.1-3.4-1.6-12.6-1.9-15.9-.5zm14.4 4.5c4.6 2.3 5.7 6.3 3.5 13-2.4 7.8-6.5 10.9-14.4 11-3.2 0-6-.2-6.3-.5-.3-.3-.8-5.3-1.2-11.2l-.7-10.6 2.8-1.6c3.7-1.9 12.6-2 16.3-.1z"/></svg>