<svg aria-hidden="true" style="position: absolute; width: 0; height: 0; overflow: hidden;" version="1.1" xmlns="http://www.w3.org/2000/svg" xmlns:xlink="http://www.w3.org/1999/xlink">
<defs>
<symbol id="icon-logo2-icon" viewBox="0 0 41 32">
<path d="M15.462 5.264c-0.678 0.102-1.062 0.256-1.213 0.477-0.074 0.109-0.090 0.173-0.099 0.378l-0.013 0.246-0.166 0.035c-0.237 0.048-0.474 0.166-0.64 0.32-0.438 0.406-0.323 1.19 0.189 1.264l0.144 0.022v0.154c0 0.192 0.074 0.266 0.291 0.288l0.157 0.016-0.262 0.384c-0.147 0.211-0.314 0.461-0.374 0.55-0.058 0.093-0.115 0.17-0.128 0.17s-0.058-0.038-0.102-0.083c-0.307-0.33-1.299-0.669-1.651-0.563-0.285 0.086-0.371 0.368-0.234 0.752 0.074 0.202 0.195 0.416 0.256 0.454 0.016 0.010 0.045 0.045 0.061 0.077 0.029 0.051 0.019 0.054-0.118 0.032-0.282-0.048-0.522-0.032-0.669 0.038-0.122 0.058-0.144 0.086-0.189 0.24-0.026 0.096-0.045 0.221-0.042 0.278 0.013 0.125-0.006 0.122-0.291-0.035-0.211-0.118-0.445-0.336-0.675-0.634-0.166-0.218-0.461-0.813-0.512-1.046-0.026-0.099-0.051-0.182-0.061-0.182-0.042 0-0.192 0.189-0.32 0.397-0.538 0.886-0.97 2.192-1.104 3.347-0.061 0.528-0.061 1.568 0 2.074 0.333 2.694 1.824 5.062 4.128 6.563 0.861 0.56 2.122 1.078 3.088 1.267 0.237 0.045 0.464 0.090 0.506 0.099l0.070 0.013v1.395l-0.112 0.054c-0.147 0.070-0.208 0.195-0.131 0.272 0.051 0.051 0.061 0.051 0.182-0.019 0.157-0.093 0.237-0.080 0.579 0.093 0.272 0.138 0.32 0.147 0.378 0.077 0.077-0.093 0.003-0.176-0.269-0.301l-0.266-0.122-0.019-0.685c-0.006-0.378-0.006-0.694 0.006-0.704 0.010-0.010 0.179-0.006 0.371 0.010 0.195 0.016 0.566 0.026 0.829 0.019l0.474-0.013-0.019 0.141c-0.010 0.080-0.019 0.307-0.019 0.506v0.362l-0.128 0.070c-0.125 0.070-0.189 0.179-0.144 0.25 0.032 0.054 0.131 0.042 0.256-0.032 0.17-0.102 0.339-0.070 0.618 0.112 0.237 0.154 0.339 0.182 0.371 0.096 0.054-0.141-0.035-0.237-0.368-0.397l-0.221-0.109v-0.352c0-0.195-0.010-0.429-0.019-0.518l-0.019-0.163 0.266-0.038c1.997-0.282 3.862-1.222 5.248-2.646 0.829-0.854 1.475-1.853 1.894-2.928 0.144-0.368 0.157-0.403 0.275-0.819 0.371-1.296 0.429-2.902 0.15-4.218l-0.048-0.224 0.131-0.24c0.275-0.512 0.458-0.819 0.531-0.902 0.061-0.064 0.074-0.106 0.058-0.173-0.022-0.080-0.029-0.083-0.17-0.064-0.083 0.010-0.227 0.054-0.323 0.099s-0.182 0.074-0.192 0.064c-0.010-0.006 0.064-0.141 0.16-0.294 0.099-0.157 0.198-0.326 0.227-0.378 0.083-0.163 0.317-0.944 0.298-0.995-0.026-0.067-0.154-0.054-0.41 0.048-0.41 0.16-0.826 0.259-1.104 0.259h-0.256l-0.125-0.202c-0.602-0.979-1.546-1.955-2.509-2.595-0.374-0.25-0.634-0.381-0.883-0.451-0.102-0.029-0.384-0.118-0.621-0.198-0.646-0.214-1.267-0.352-1.936-0.426-0.176-0.022-0.477-0.058-0.672-0.083-0.515-0.067-1.968-0.086-2.346-0.029zM17.216 5.472c0.291 0.016 0.643 0.048 0.784 0.070 0.253 0.038 0.256 0.038 0.128 0.067-0.787 0.173-0.864 0.198-1.379 0.461-0.621 0.31-1.357 0.854-1.699 1.248-0.285 0.33-0.624 0.682-0.659 0.682-0.019 0-0.109 0.051-0.202 0.112-0.17 0.115-0.25 0.138-0.285 0.080-0.045-0.074 0.035-0.202 0.23-0.355 0.173-0.134 0.205-0.176 0.195-0.246-0.016-0.128-0.099-0.122-0.298 0.022-0.099 0.067-0.234 0.134-0.301 0.147-0.166 0.029-0.346-0.048-0.39-0.166-0.051-0.125-0.042-0.435 0.016-0.544 0.154-0.298 0.672-0.518 1.002-0.432 0.17 0.048 0.656 0.048 0.816 0.006 0.128-0.038 0.186-0.131 0.122-0.208-0.032-0.038-0.128-0.048-0.432-0.048-0.218 0-0.416-0.010-0.445-0.019-0.064-0.026-0.070-0.31-0.010-0.429 0.112-0.221 0.592-0.384 1.366-0.458 0.246-0.026 0.941-0.019 1.44 0.010zM19.776 5.885c0.272 0.051 0.582 0.125 0.688 0.16s0.25 0.074 0.32 0.086c0.266 0.048 0.89 0.349 1.21 0.582 0.627 0.454 1.366 1.187 1.853 1.837 0.998 1.338 1.594 2.848 1.757 4.461 0.048 0.493 0.022 1.635-0.051 2.093-0.362 2.32-1.59 4.355-3.453 5.725-1.146 0.842-2.378 1.36-3.811 1.6-0.746 0.128-1.866 0.163-2.365 0.080l-0.125-0.022 0.019-0.25c0.022-0.291-0.010-0.349-0.189-0.349-0.141 0-0.186 0.099-0.163 0.358 0.019 0.221 0.032 0.218-0.445 0.122-0.851-0.173-1.776-0.512-2.525-0.922-0.317-0.173-1.062-0.656-1.184-0.765-0.035-0.032-0.173-0.144-0.304-0.25-0.8-0.646-1.651-1.699-2.154-2.675-1.197-2.307-1.334-4.925-0.384-7.293 0.163-0.4 0.528-1.136 0.566-1.136 0.013 0 0.083 0.138 0.157 0.304 0.176 0.4 0.221 0.474 0.509 0.819 0.173 0.205 0.304 0.33 0.445 0.416 0.224 0.134 0.659 0.333 0.736 0.333 0.026 0 0.163 0.074 0.304 0.166 0.138 0.090 0.323 0.195 0.413 0.234l0.157 0.070-0.093 0.051c-0.141 0.070-0.202 0.154-0.227 0.301-0.038 0.24 0.144 0.352 0.662 0.416 0.358 0.042 0.797-0.038 0.797-0.15 0-0.074-0.102-0.125-0.202-0.102-0.166 0.035-0.73 0.022-0.88-0.019-0.157-0.048-0.198-0.112-0.122-0.195 0.102-0.112 0.298-0.134 0.71-0.083 0.211 0.026 0.413 0.048 0.451 0.048 0.083 0 0.147-0.096 0.106-0.157-0.013-0.026-0.221-0.083-0.467-0.134-0.749-0.154-1.19-0.358-1.488-0.694-0.122-0.141-0.131-0.16-0.112-0.294 0.010-0.080 0.045-0.163 0.074-0.186 0.067-0.048 0.458-0.051 0.688-0.003 0.227 0.048 0.47 0.15 0.57 0.24s0.787 0.438 0.832 0.422c0.051-0.016-0.083-0.176-0.192-0.234-0.048-0.026-0.109-0.064-0.134-0.090-0.022-0.022-0.141-0.118-0.266-0.214-0.669-0.515-0.944-0.87-0.944-1.219 0-0.205 0.054-0.253 0.278-0.253 0.362 0 0.966 0.234 1.274 0.49 0.394 0.326 0.835 0.768 1.034 1.030 0.080 0.106 0.224 0.278 0.317 0.387s0.17 0.211 0.17 0.227 0.038 0.051 0.083 0.074c0.070 0.038 0.086 0.038 0.109 0 0.051-0.080 0.035-0.122-0.112-0.294-0.077-0.093-0.224-0.278-0.323-0.41s-0.326-0.387-0.499-0.563c-0.371-0.378-0.374-0.275 0.016-0.861 0.88-1.318 1.181-1.677 1.83-2.192 0.896-0.707 1.571-1.024 2.64-1.229 0.218-0.042 0.963 0.013 1.44 0.106zM25.968 9.478c-0.115 0.317-0.205 0.486-0.435 0.835-0.109 0.16-0.195 0.326-0.195 0.365 0.010 0.15-0.051 0.093-0.134-0.128-0.048-0.128-0.173-0.406-0.278-0.621-0.102-0.218-0.189-0.397-0.189-0.403 0-0.010 0.096-0.022 0.218-0.029 0.221-0.016 0.422-0.067 0.838-0.218 0.131-0.045 0.243-0.074 0.25-0.061 0.006 0.016-0.026 0.131-0.074 0.259zM25.904 10.806c-0.010 0.032-0.102 0.195-0.202 0.362l-0.179 0.301-0.106-0.317c-0.058-0.176-0.106-0.323-0.106-0.326s0.042 0.013 0.093 0.032c0.074 0.029 0.125 0.022 0.262-0.035 0.218-0.083 0.266-0.086 0.237-0.016z"></path>
<path d="M17.376 7.085c-0.554 0.291-0.992 0.902-1.088 1.51-0.016 0.102-0.045 0.752-0.067 1.44l-0.038 1.251 0.086 0.259c0.115 0.346 0.298 0.55 0.63 0.714 0.259 0.128 0.384 0.16 0.989 0.243 0.566 0.077 2.576 0.074 2.765-0.006 0.269-0.115 0.675-0.598 0.752-0.896 0.045-0.186 0.051-0.243 0.118-1.712 0.080-1.661 0.086-1.53-0.083-1.904-0.115-0.262-0.176-0.355-0.339-0.512-0.118-0.118-0.282-0.237-0.416-0.301-0.221-0.109-0.224-0.112-0.829-0.138-0.333-0.013-0.982-0.032-1.44-0.042l-0.832-0.016-0.208 0.109zM19.686 7.427c0.259 0.061 0.288 0.077 0.528 0.285 0.288 0.25 0.458 0.477 0.627 0.851 0.198 0.429 0.253 0.675 0.256 1.133 0.003 0.467-0.048 0.714-0.234 1.104-0.39 0.826-1.158 1.325-2.035 1.328-1.056 0.003-1.974-0.806-2.192-1.926-0.054-0.288-0.038-0.813 0.035-1.091 0.221-0.835 0.758-1.43 1.549-1.706 0.214-0.074 0.253-0.077 0.707-0.061 0.301 0.013 0.586 0.045 0.758 0.083z"></path>
<path d="M19.869 8.358c-0.15 0.163-0.157 0.387-0.006 0.506 0.198 0.154 0.458-0.016 0.458-0.301 0-0.24-0.291-0.371-0.451-0.205zM18.656 8.979c-0.349 0.128-0.547 0.307-0.624 0.57-0.061 0.202-0.061 0.256 0.003 0.47 0.038 0.131 0.090 0.211 0.218 0.336 0.589 0.573 1.574 0.211 1.517-0.554-0.006-0.102-0.038-0.237-0.067-0.298-0.083-0.17-0.272-0.352-0.458-0.438-0.16-0.070-0.493-0.122-0.589-0.086zM18.355 13.171c-0.064 0.064-0.067 0.205-0.003 0.288 0.045 0.058 0.051 0.058 0.093 0.003 0.022-0.029 0.058-0.054 0.077-0.054 0.038 0 0.102-0.099 0.102-0.157 0-0.051-0.096-0.131-0.16-0.131-0.032 0-0.083 0.022-0.109 0.051zM14.096 13.75c-0.070 0.006-0.246 0.026-0.387 0.042-0.429 0.054-1.606 0.166-1.965 0.189-0.285 0.016-0.336 0.029-0.346 0.074-0.022 0.118 0.128 0.134 0.79 0.077 0.339-0.032 0.624-0.048 0.63-0.042 0.035 0.035 0.022 2.048-0.016 2.371l-0.038 0.349 0.086 0.090c0.166 0.176 0.291 0.102 0.333-0.195 0.048-0.326 0.077-2.464 0.035-2.57-0.019-0.048-0.029-0.086-0.026-0.086s0.23-0.029 0.502-0.064 0.544-0.064 0.602-0.064c0.125 0 0.176-0.083 0.086-0.147-0.032-0.026-0.083-0.042-0.109-0.038-0.029 0.003-0.109 0.010-0.179 0.016zM14.758 13.798c-0.035 0.045-0.23 0.88-0.307 1.296-0.026 0.147-0.067 0.288-0.096 0.317-0.032 0.032-0.045 0.077-0.032 0.125 0.010 0.042-0.010 0.166-0.045 0.278-0.093 0.285-0.294 0.97-0.294 0.992 0 0.032 0.093 0.058 0.144 0.038 0.026-0.013 0.048-0.054 0.048-0.096 0-0.038 0.035-0.186 0.077-0.323 0.045-0.138 0.109-0.384 0.147-0.547 0.058-0.243 0.083-0.304 0.141-0.326 0.077-0.029 0.915-0.141 0.931-0.122 0.022 0.019 0.426 1.162 0.445 1.261 0.022 0.096 0.125 0.237 0.173 0.237 0.016 0 0.051-0.019 0.083-0.042 0.051-0.038 0.048-0.067-0.090-0.47-0.346-1.024-0.618-1.712-0.826-2.109-0.051-0.093-0.115-0.237-0.141-0.32-0.058-0.17-0.118-0.227-0.24-0.227-0.045 0-0.099 0.019-0.118 0.038zM15.066 14.454c0.16 0.342 0.326 0.742 0.326 0.781 0 0.016-0.048 0.029-0.102 0.029-0.058 0-0.243 0.022-0.41 0.045-0.166 0.026-0.307 0.042-0.31 0.038-0.019-0.016 0.32-1.171 0.342-1.171 0.013 0 0.080 0.125 0.154 0.278zM16.198 13.894c-0.045 0.045-0.051 0.429-0.010 0.618 0.016 0.070 0.038 0.614 0.048 1.206s0.029 1.098 0.038 1.123c0.022 0.064 0.086 0.086 0.173 0.064l0.074-0.019-0.019-1.123c-0.010-0.618-0.029-1.155-0.042-1.197-0.010-0.038-0.006-0.070 0.006-0.070 0.115 0.006 0.864 1.61 0.925 1.978 0.029 0.189 0.138 0.31 0.25 0.282 0.045-0.010 0.102-0.042 0.128-0.067 0.067-0.064 0.099-0.669 0.074-1.328-0.058-1.504-0.054-1.491-0.218-1.466-0.074 0.010-0.074 0.016-0.074 0.394 0 0.211 0.016 0.714 0.029 1.117 0.022 0.512 0.019 0.726-0.003 0.714-0.019-0.013-0.070-0.115-0.118-0.23-0.144-0.358-0.502-1.114-0.614-1.29-0.061-0.093-0.166-0.282-0.237-0.422-0.093-0.182-0.154-0.269-0.211-0.288-0.106-0.042-0.15-0.042-0.198 0.006zM18.182 13.926c-0.029 0.029-0.038 0.285-0.038 1.046 0 0.557-0.016 1.174-0.032 1.376-0.038 0.41-0.016 0.477 0.138 0.438 0.074-0.016 0.083-0.038 0.106-0.266 0.016-0.138 0.029-0.784 0.029-1.434v-1.184l-0.080-0.010c-0.045-0.006-0.099 0.010-0.122 0.032zM19.37 13.92c-0.083 0.035-0.125 0.221-0.15 0.682-0.010 0.17-0.045 0.438-0.080 0.592-0.032 0.154-0.086 0.4-0.115 0.55-0.058 0.278-0.102 0.454-0.189 0.768-0.067 0.234-0.064 0.31 0.013 0.352 0.083 0.045 0.192-0.010 0.192-0.093 0-0.035 0.032-0.16 0.070-0.278 0.038-0.122 0.099-0.358 0.134-0.525l0.067-0.304h0.544l0.022 0.128c0.090 0.518 0.202 1.030 0.227 1.066 0.019 0.022 0.061 0.038 0.096 0.032 0.125-0.019 0.134-0.093 0.058-0.496-0.128-0.656-0.138-0.746-0.093-0.8 0.032-0.038 0.026-0.058-0.029-0.099-0.070-0.054-0.112-0.176-0.186-0.547-0.058-0.304-0.234-0.922-0.278-0.995-0.045-0.067-0.179-0.083-0.304-0.032zM19.693 15.008c0.042 0.202 0.083 0.39 0.086 0.416 0.010 0.038-0.032 0.051-0.202 0.058-0.246 0.010-0.24 0.016-0.173-0.25 0.051-0.205 0.086-0.442 0.086-0.624 0.003-0.070 0.010-0.157 0.019-0.192 0.022-0.083 0.077 0.093 0.182 0.592zM21.19 16.614c-0.093 0.093 0.013 0.202 0.147 0.15 0.106-0.038 0.086-0.17-0.026-0.182-0.045-0.006-0.099 0.010-0.122 0.032zM18.736 17.274c-0.010 0.048-0.003 0.25 0.016 0.448s0.032 0.72 0.035 1.158c0 0.442 0.006 0.822 0.016 0.848 0.013 0.026 0.048 0.048 0.080 0.048 0.058 0 0.061-0.038 0.067-0.682l0.010-0.678 0.182 0.227c0.099 0.128 0.192 0.272 0.205 0.32 0.013 0.051 0.067 0.186 0.125 0.301s0.115 0.243 0.128 0.285c0.064 0.208 0.112 0.288 0.16 0.272 0.026-0.013 0.048-0.051 0.048-0.090 0-0.077-0.109-0.371-0.173-0.477-0.026-0.038-0.077-0.163-0.118-0.278-0.045-0.128-0.141-0.288-0.243-0.416-0.15-0.189-0.163-0.211-0.112-0.246 0.346-0.24 0.49-0.55 0.378-0.813-0.026-0.064-0.106-0.163-0.176-0.218-0.115-0.090-0.144-0.099-0.365-0.099-0.237 0-0.24 0-0.262 0.090zM19.248 17.37c0.109 0.090 0.176 0.208 0.176 0.304 0 0.198-0.237 0.502-0.387 0.502-0.080 0-0.090-0.013-0.106-0.138-0.035-0.285-0.054-0.662-0.035-0.694 0.032-0.051 0.282-0.035 0.352 0.026zM21.987 17.238c-0.035 0.074-0.086 0.499-0.131 1.13-0.019 0.272-0.048 0.662-0.064 0.864-0.042 0.502-0.042 0.544 0.016 0.544 0.026 0 0.048-0.019 0.048-0.042 0-0.048 0.131-1.123 0.138-1.133 0.003 0 0.093 0.006 0.198 0.016l0.192 0.022 0.131 0.464c0.15 0.522 0.17 0.576 0.205 0.576 0.064 0 0.051-0.077-0.096-0.656-0.432-1.696-0.531-1.981-0.637-1.786zM22.243 18.131c0.051 0.179 0.093 0.336 0.093 0.346 0 0.032-0.109 0.022-0.224-0.016l-0.102-0.038 0.019-0.355c0.029-0.442 0.051-0.528 0.093-0.371 0.016 0.061 0.074 0.259 0.122 0.435zM17.606 17.302c-0.019 0.051-0.074 0.227-0.118 0.394-0.083 0.301-0.214 0.582-0.339 0.733-0.035 0.042-0.067 0.070-0.074 0.064s-0.029-0.272-0.048-0.589c-0.038-0.589-0.070-0.72-0.16-0.611-0.029 0.035-0.029 0.122-0.003 0.371 0.016 0.179 0.032 0.714 0.032 1.184 0 0.842 0.013 0.96 0.099 0.874 0.019-0.019 0.042-0.243 0.051-0.502 0.010-0.256 0.032-0.467 0.045-0.467s0.090 0.086 0.173 0.195c0.115 0.154 0.16 0.25 0.211 0.454 0.067 0.269 0.122 0.368 0.186 0.33 0.048-0.032 0.045-0.093-0.029-0.387-0.054-0.208-0.096-0.294-0.24-0.483-0.096-0.125-0.176-0.24-0.176-0.253s0.042-0.077 0.093-0.141c0.048-0.064 0.128-0.189 0.17-0.275 0.080-0.157 0.25-0.781 0.25-0.912 0-0.093-0.083-0.077-0.122 0.022zM17.811 17.245c-0.010 0.013-0.010 0.451-0.003 0.97 0.019 1.219 0.067 1.462 0.291 1.507 0.054 0.010 0.093-0.006 0.125-0.054 0.077-0.109 0.061-0.157-0.045-0.131-0.077 0.016-0.102 0.006-0.134-0.051-0.045-0.083-0.090-0.838-0.093-1.533 0-0.256-0.010-0.518-0.019-0.582-0.019-0.112-0.086-0.182-0.122-0.125zM21.258 17.264c-0.010 0.029-0.010 0.176 0.003 0.33 0.010 0.154 0.032 0.659 0.048 1.12 0.019 0.464 0.042 0.874 0.051 0.906 0.013 0.035 0.045 0.061 0.074 0.054 0.045-0.010 0.051-0.070 0.045-0.506-0.010-0.534-0.058-1.51-0.090-1.786-0.013-0.112-0.035-0.166-0.064-0.166-0.026 0-0.054 0.022-0.067 0.048zM18.349 17.286c-0.032 0.048-0.019 0.47 0.013 0.522 0.013 0.016 0.029 0.458 0.038 0.976 0.016 0.883 0.019 0.944 0.074 0.954 0.058 0.013 0.214-0.106 0.214-0.16 0-0.013-0.029-0.026-0.061-0.026-0.058 0-0.061-0.042-0.080-0.858-0.022-1.104-0.090-1.584-0.198-1.408zM19.766 17.318c-0.019 0.074 0.051 1.062 0.102 1.45 0.016 0.122 0.042 0.365 0.051 0.538 0.022 0.358 0.035 0.406 0.102 0.406 0.058 0 0.048-0.291-0.038-1.216-0.061-0.678-0.074-0.896-0.042-0.877 0.045 0.029 0.134 0.227 0.31 0.669 0.224 0.576 0.666 1.466 0.714 1.446 0.045-0.013 0.042-0.051-0.006-0.486-0.016-0.141-0.051-0.493-0.080-0.784-0.026-0.291-0.061-0.605-0.080-0.701-0.016-0.093-0.032-0.237-0.032-0.314 0-0.096-0.016-0.144-0.051-0.16-0.131-0.048-0.125 0.054 0.070 1.542 0.026 0.192 0.045 0.371 0.045 0.4-0.003 0.086-0.157-0.24-0.368-0.794-0.253-0.646-0.275-0.701-0.435-0.976-0.134-0.224-0.227-0.278-0.262-0.144zM14.016 17.312c-0.026 0.016-0.083 0.032-0.128 0.032h-0.083l0.010 1.126c0.006 0.621 0.010 1.149 0.010 1.168 0 0.051 0.083 0.054 0.115 0.003 0.013-0.022 0.032-0.256 0.042-0.522l0.019-0.48 0.099 0.15c0.058 0.086 0.144 0.307 0.205 0.512 0.058 0.198 0.118 0.387 0.134 0.416 0.026 0.054 0.154 0.083 0.154 0.032 0-0.013-0.058-0.218-0.131-0.454-0.093-0.307-0.17-0.496-0.275-0.666-0.118-0.192-0.138-0.243-0.102-0.266 0.026-0.016 0.067-0.029 0.093-0.029 0.090 0 0.378-0.189 0.464-0.301 0.163-0.214 0.131-0.563-0.061-0.653-0.208-0.099-0.467-0.131-0.563-0.070zM14.349 17.446c0.195 0.054 0.243 0.109 0.243 0.269 0 0.214-0.205 0.413-0.499 0.474l-0.099 0.022-0.019-0.218c-0.013-0.118-0.022-0.291-0.022-0.384 0-0.147 0.010-0.166 0.074-0.179 0.131-0.026 0.189-0.022 0.323 0.016zM15.187 17.366c-0.186 0.186-0.278 0.528-0.282 1.053 0 0.4 0.048 0.691 0.157 0.931 0.080 0.17 0.234 0.33 0.32 0.33 0.102 0 0.23-0.112 0.307-0.269 0.131-0.262 0.166-0.477 0.166-0.963 0-0.477-0.054-0.723-0.211-0.989-0.118-0.202-0.31-0.243-0.458-0.093zM15.498 17.501c0.262 0.314 0.31 1.411 0.083 1.866-0.086 0.173-0.173 0.211-0.272 0.118-0.304-0.288-0.355-1.517-0.077-1.965 0.083-0.138 0.16-0.141 0.266-0.019zM16.131 17.35c-0.192 0.205-0.173 0.493 0.067 0.986 0.294 0.598 0.323 0.925 0.093 1.078-0.128 0.086-0.278 0.096-0.358 0.022-0.067-0.061-0.125-0.035-0.125 0.051 0 0.15 0.266 0.205 0.499 0.099 0.374-0.17 0.384-0.605 0.029-1.328-0.186-0.381-0.221-0.56-0.138-0.739 0.032-0.070 0.054-0.083 0.147-0.074 0.096 0.010 0.118 0.026 0.147 0.112 0.019 0.054 0.045 0.112 0.058 0.125 0.038 0.035 0.093-0.144 0.070-0.227-0.042-0.163-0.371-0.234-0.49-0.106zM12.944 17.376c-0.035 0.016-0.112 0.029-0.166 0.029-0.058 0.003-0.106 0.013-0.109 0.026-0.010 0.128-0.013 2.275-0.003 2.304 0.006 0.022 0.042 0.042 0.074 0.042 0.067 0 0.077-0.128 0.077-0.96v-0.368l0.147 0.010c0.214 0.016 0.387-0.042 0.512-0.166 0.112-0.115 0.214-0.355 0.218-0.512 0.003-0.131-0.118-0.33-0.24-0.387-0.109-0.051-0.403-0.061-0.509-0.016zM13.405 17.52c0.147 0.074 0.182 0.202 0.112 0.416-0.077 0.25-0.208 0.349-0.461 0.352-0.102 0-0.192-0.006-0.202-0.016s-0.026-0.17-0.038-0.358l-0.022-0.339 0.090-0.051c0.118-0.061 0.403-0.064 0.522-0.003z"></path>
</symbol>
</defs>
</svg>
