<?xml version="1.0" standalone="no"?>
<!DOCTYPE svg PUBLIC "-//W3C//DTD SVG 20010904//EN"
 "http://www.w3.org/TR/2001/REC-SVG-20010904/DTD/svg10.dtd">
<svg version="1.0" xmlns="http://www.w3.org/2000/svg"
 width="79.000000pt" height="86.000000pt" viewBox="0 0 79.000000 86.000000"
 preserveAspectRatio="xMidYMid meet">

<g transform="translate(0.000000,86.000000) scale(0.100000,-0.100000)"
fill="#000000" stroke="none">
<path d="M590 779 c0 -5 5 -7 10 -4 6 3 10 8 10 11 0 2 -4 4 -10 4 -5 0 -10
-5 -10 -11z"/>
<path d="M475 750 c-3 -5 1 -10 9 -10 9 0 16 5 16 10 0 6 -4 10 -9 10 -6 0
-13 -4 -16 -10z"/>
<path d="M593 744 c-7 -7 -13 -18 -13 -23 0 -6 -7 -8 -15 -5 -11 5 -14 2 -9
-12 6 -17 5 -17 -9 1 -9 11 -17 15 -17 9 0 -6 -10 -10 -22 -9 -13 1 -29 -2
-35 -8 -8 -6 -13 -6 -13 0 0 5 -6 10 -12 11 -7 0 -32 3 -55 5 -28 4 -45 1 -53
-8 -10 -12 -7 -13 19 -5 17 5 31 6 31 2 0 -12 -15 -27 -27 -28 -30 -2 -34 -5
-27 -16 6 -10 5 -10 -8 -1 -8 7 -18 11 -22 8 -3 -3 -2 1 4 7 5 7 10 19 10 27
0 10 -3 12 -8 6 -7 -11 -76 -37 -102 -40 -8 -1 -25 -6 -36 -13 -12 -6 -24 -9
-27 -6 -3 3 -11 -4 -17 -16 -7 -13 -8 -20 -2 -16 6 3 13 3 16 -2 2 -4 20 -9
39 -10 35 -3 55 17 40 40 -4 7 -1 8 6 3 7 -4 11 -15 8 -25 -4 -15 0 -17 21
-14 15 3 32 10 38 15 8 7 15 6 19 -2 6 -8 10 -7 17 5 8 14 12 15 26 4 13 -11
14 -11 7 2 -8 13 -6 13 8 2 14 -12 17 -11 23 12 5 23 7 24 22 9 9 -8 18 -11
19 -6 2 6 26 8 54 6 29 -2 48 0 45 6 -3 5 0 11 8 14 17 7 27 -14 21 -43 -3
-17 0 -20 15 -15 12 4 20 2 20 -4 0 -6 -4 -11 -10 -11 -5 0 -10 -5 -10 -11 0
-5 5 -7 10 -4 6 3 10 1 10 -4 0 -6 -4 -11 -9 -11 -5 0 -14 -13 -20 -30 -5 -16
-16 -30 -23 -30 -9 0 -9 3 2 11 12 8 9 9 -10 4 -14 -4 -36 -9 -50 -12 -14 -2
-32 -7 -40 -10 -8 -4 -17 -7 -20 -7 -3 -1 -22 -12 -42 -24 -21 -13 -42 -21
-48 -17 -6 3 -13 -1 -16 -9 -3 -9 -14 -16 -23 -16 -9 0 -25 -6 -36 -14 -11 -7
-27 -13 -36 -13 -16 0 -17 4 -20 55 -1 15 -4 21 -6 14 -3 -6 -9 -10 -14 -6 -5
3 -9 0 -9 -5 0 -6 -3 -10 -8 -9 -15 5 -55 -41 -49 -56 4 -10 1 -16 -8 -16 -24
0 -29 -22 -9 -39 18 -15 31 -56 14 -46 -15 9 -18 -22 -6 -46 10 -20 10 -29 -2
-54 -10 -20 -11 -30 -3 -33 6 -2 11 -10 11 -17 0 -7 9 -15 20 -18 12 -3 20
-14 20 -25 0 -15 5 -20 20 -17 11 2 20 -1 20 -7 0 -5 6 -8 14 -5 7 3 18 1 23
-4 13 -13 40 -2 40 16 0 8 -4 12 -9 9 -4 -3 -8 2 -8 11 0 15 -1 15 -16 1 -25
-26 -30 -18 -5 8 17 18 19 25 9 29 -10 4 -10 6 0 6 6 1 12 6 12 12 0 5 -5 7
-12 3 -6 -4 -8 -3 -5 4 9 13 -2 44 -13 37 -5 -3 -6 4 -3 14 3 10 0 28 -7 40
-9 17 -8 22 5 27 12 5 14 14 10 35 -6 25 -3 29 14 29 12 0 21 5 21 10 0 7 7 7
22 -1 18 -10 20 -9 15 5 -4 10 -3 15 3 11 6 -3 10 -1 10 5 0 6 5 8 10 5 6 -4
7 -13 1 -24 -5 -9 -6 -23 -2 -30 4 -7 6 -24 3 -38 -4 -19 -2 -24 8 -18 13 8
12 -9 -3 -72 -3 -13 -2 -25 4 -28 5 -4 9 -17 9 -30 0 -20 5 -23 27 -22 52 4
75 53 44 91 -8 10 -9 16 -1 21 22 14 2 115 -23 115 -5 0 -2 -12 7 -27 l17 -28
-20 24 c-12 12 -19 27 -16 31 3 5 1 11 -5 15 -17 10 -11 25 10 25 11 0 28 8
39 19 13 13 23 16 35 9 12 -7 16 -5 16 7 0 8 5 15 11 15 5 0 8 4 5 8 -3 5 1 9
9 9 8 0 12 -4 9 -9 -3 -4 2 -8 10 -8 9 0 16 -4 16 -9 0 -5 9 -13 20 -16 18 -6
19 -8 5 -28 -11 -15 -12 -24 -3 -34 7 -9 7 -13 -1 -13 -16 0 -14 -26 4 -44 9
-9 11 -17 5 -21 -15 -9 -12 -74 4 -90 18 -18 27 -8 20 20 -3 13 -1 26 5 29 6
4 12 1 13 -6 0 -7 2 -17 3 -23 2 -5 3 -17 4 -24 2 -23 21 1 27 32 2 15 9 38
14 52 7 19 6 32 -4 48 -8 12 -12 31 -9 42 13 56 12 100 -2 121 -19 30 -19 31
6 37 16 4 18 3 8 -9 -7 -8 -7 -14 -1 -14 14 0 23 28 11 35 -5 4 -7 10 -4 15 3
5 1 11 -4 15 -6 3 -8 12 -5 19 3 8 0 17 -6 21 -7 5 -8 10 -3 14 14 9 25 71 13
71 -6 0 -10 4 -10 9 0 5 10 7 23 5 12 -2 17 -2 10 2 -7 3 -9 12 -6 20 3 8 0
14 -7 14 -6 0 -9 4 -6 8 3 5 -1 9 -9 9 -8 0 -11 -5 -8 -11 4 -6 -1 -5 -10 3
-9 7 -17 10 -17 5 0 -5 -4 -4 -8 2 -5 9 -10 8 -19 -2z m-64 -267 c12 -15 12
-17 -3 -11 -9 3 -16 13 -16 22 0 8 1 13 3 11 1 -2 9 -12 16 -22z m39 5 c5 -17
-13 -15 -27 2 -10 12 -9 14 5 12 10 -2 20 -8 22 -14z m-11 -44 c-3 -8 -6 -5
-6 6 -1 11 2 17 5 13 3 -3 4 -12 1 -19z m-167 8 c0 -2 -7 -7 -16 -10 -8 -3
-12 -2 -9 4 6 10 25 14 25 6z m25 -36 c-3 -5 -14 -10 -23 -9 -14 0 -13 2 3 9
27 11 27 11 20 0z m-195 -104 c0 -3 -4 -8 -10 -11 -5 -3 -10 -1 -10 4 0 6 5
11 10 11 6 0 10 -2 10 -4z m-46 -22 c3 -8 2 -12 -4 -9 -6 3 -10 10 -10 16 0
14 7 11 14 -7z m-17 -91 c-3 -10 -5 -4 -5 12 0 17 2 24 5 18 2 -7 2 -21 0 -30z
m59 -18 c1 -8 -2 -15 -7 -15 -5 0 -9 10 -9 22 0 23 12 17 16 -7z m204 -9 c0
-3 -4 -8 -10 -11 -5 -3 -10 -1 -10 4 0 6 5 11 10 11 6 0 10 -2 10 -4z"/>
<path d="M423 743 c-7 -2 -13 -8 -13 -12 0 -11 34 -7 38 4 4 11 -8 15 -25 8z"/>
<path d="M123 556 c-24 -24 -32 -53 -12 -40 7 4 9 0 5 -14 -4 -11 -2 -23 4
-27 5 -3 10 -12 10 -18 0 -8 -3 -8 -9 2 -6 10 -10 10 -16 1 -4 -6 -3 -16 1
-20 10 -9 55 23 53 37 -3 19 2 34 10 29 16 -10 19 19 5 39 -8 10 -14 15 -15 9
0 -5 -3 -1 -7 8 -6 15 -9 15 -29 -6z"/>
<path d="M495 430 c-3 -5 1 -10 10 -10 9 0 13 5 10 10 -3 6 -8 10 -10 10 -2 0
-7 -4 -10 -10z"/>
<path d="M331 134 c0 -11 3 -14 6 -6 3 7 2 16 -1 19 -3 4 -6 -2 -5 -13z"/>
</g>
</svg>
