<svg aria-hidden="true" style="position: absolute; width: 0; height: 0; overflow: hidden;" version="1.1" xmlns="http://www.w3.org/2000/svg" xmlns:xlink="http://www.w3.org/1999/xlink">
<defs>
<symbol id="new-logo" viewBox="0 0 31 32">
<path d="M13.735 0.362c-0.099 0.013-0.31 0.036-0.469 0.052-0.935 0.099-1.786 0.378-2.041 0.672-0.206 0.232-0.297 0.526-0.284 0.906l0.008 0.234-0.195 0.042c-0.549 0.117-0.831 0.255-1.135 0.557-0.286 0.286-0.391 0.51-0.417 0.924-0.026 0.388 0.083 0.724 0.305 0.922 0.128 0.115 0.305 0.185 0.544 0.219 0.159 0.021 0.151 0.005 0.117 0.253-0.023 0.174 0.031 0.302 0.174 0.396 0.099 0.065 0.13 0.073 0.338 0.073 0.125 0 0.229 0.005 0.229 0.013 0 0.016-0.13 0.216-0.273 0.417-0.187 0.266-0.732 1.078-0.831 1.242-0.055 0.091-0.112 0.164-0.128 0.164s-0.070-0.039-0.122-0.089c-0.414-0.393-1.289-0.815-1.953-0.943-0.211-0.042-0.721-0.055-0.846-0.023-0.362 0.091-0.539 0.549-0.406 1.039 0.102 0.372 0.297 0.732 0.539 1.002 0.065 0.070 0.107 0.135 0.094 0.141-0.010 0.008-0.096-0.003-0.187-0.021-0.094-0.021-0.31-0.044-0.482-0.055-0.354-0.018-0.575 0.021-0.747 0.133-0.18 0.12-0.297 0.461-0.273 0.799 0.008 0.112 0.008 0.203 0 0.203-0.034 0-0.583-0.292-0.763-0.404-0.096-0.060-0.294-0.247-0.43-0.404-0.495-0.575-0.607-0.739-0.864-1.263-0.237-0.484-0.346-0.768-0.401-1.049-0.016-0.089-0.039-0.161-0.049-0.161-0.013 0-0.096 0.073-0.187 0.161-0.372 0.362-1.078 1.791-1.513 3.067-0.159 0.463-0.375 1.299-0.487 1.885-0.336 1.745-0.331 3.656 0.016 5.442 0.45 2.328 1.479 4.544 2.976 6.405 0.7 0.875 1.518 1.687 2.385 2.372 0.073 0.057 0.135 0.109 0.143 0.117 0.018 0.021 0.443 0.328 0.69 0.5 0.227 0.156 0.758 0.489 0.963 0.607 0.073 0.039 0.2 0.112 0.286 0.161 1.375 0.773 3.033 1.351 4.752 1.656l0.325 0.057 0.005 0.378c0.005 0.208 0 0.724-0.013 1.146l-0.018 0.768-0.117 0.055c-0.148 0.070-0.312 0.247-0.312 0.336 0 0.078 0.107 0.195 0.177 0.195 0.029 0 0.115-0.044 0.19-0.096 0.122-0.086 0.159-0.099 0.289-0.099 0.135 0.003 0.193 0.023 0.586 0.221 0.487 0.242 0.599 0.268 0.687 0.159 0.060-0.076 0.063-0.141 0.008-0.237-0.039-0.065-0.292-0.201-0.781-0.419l-0.107-0.049-0.016-0.549c-0.026-0.779-0.023-1.711 0.005-1.726 0.010-0.008 0.232 0.005 0.487 0.026 0.344 0.031 0.7 0.039 1.359 0.031l0.896-0.008-0.016 0.091c-0.044 0.273-0.070 0.812-0.057 1.161l0.018 0.391-0.151 0.073c-0.307 0.146-0.417 0.315-0.299 0.456 0.083 0.104 0.182 0.096 0.362-0.026 0.143-0.094 0.187-0.109 0.338-0.12 0.24-0.018 0.398 0.044 0.765 0.305 0.328 0.234 0.406 0.255 0.531 0.141 0.060-0.055 0.070-0.081 0.057-0.159-0.026-0.151-0.172-0.276-0.565-0.479-0.193-0.102-0.37-0.203-0.393-0.229-0.039-0.036-0.044-0.146-0.057-0.844-0.013-0.932-0.057-0.823 0.346-0.875 0.833-0.107 1.867-0.346 2.734-0.635 1.028-0.344 2.044-0.815 3.036-1.414 1.359-0.818 2.739-2.036 3.775-3.335 1.008-1.26 1.838-2.763 2.341-4.226 0.253-0.745 0.479-1.62 0.586-2.291 0.096-0.609 0.104-0.664 0.133-0.924 0.060-0.575 0.076-0.888 0.073-1.523 0-1.094-0.083-1.919-0.312-3.067-0.052-0.266-0.052-0.268-0.003-0.351 0.029-0.044 0.125-0.224 0.213-0.396 0.143-0.276 0.367-0.672 0.646-1.146 0.049-0.086 0.138-0.206 0.193-0.266 0.109-0.12 0.13-0.234 0.057-0.305-0.107-0.109-0.325-0.075-0.786 0.117-0.174 0.075-0.325 0.128-0.333 0.12-0.010-0.010 0.005-0.049 0.031-0.089s0.073-0.12 0.107-0.18c0.031-0.057 0.128-0.211 0.213-0.341 0.279-0.422 0.422-0.763 0.641-1.518 0.052-0.18 0.112-0.37 0.135-0.422 0.049-0.117 0.031-0.208-0.057-0.255-0.086-0.047-0.221-0.013-0.591 0.143-0.148 0.063-0.38 0.143-0.516 0.182s-0.365 0.109-0.508 0.154c-0.242 0.075-0.292 0.081-0.734 0.089l-0.471 0.010-0.073-0.128c-0.24-0.414-0.831-1.237-1.258-1.752-0.849-1.018-1.937-2.002-2.984-2.697-0.63-0.419-1.078-0.635-1.609-0.779-0.26-0.070-0.617-0.185-1.086-0.346-0.328-0.115-0.477-0.156-1.198-0.328-0.672-0.161-0.911-0.203-1.211-0.211-0.143-0.005-0.318-0.023-0.385-0.039-0.32-0.070-0.935-0.148-1.958-0.245-0.45-0.044-2.177-0.073-2.448-0.044zM15.206 0.729c0.409 0.016 0.877 0.039 1.041 0.055s0.44 0.036 0.612 0.049c0.273 0.023 0.432 0.044 0.659 0.094 0.086 0.018 0.049 0.052-0.078 0.073-0.32 0.052-1.297 0.315-1.56 0.419-0.448 0.18-1.148 0.549-1.573 0.828-0.56 0.37-1.547 1.135-1.69 1.317-0.016 0.018-0.065 0.073-0.107 0.117-0.044 0.044-0.109 0.122-0.148 0.172-0.104 0.141-0.557 0.643-0.755 0.841-0.102 0.099-0.221 0.19-0.276 0.208-0.052 0.018-0.177 0.094-0.279 0.167-0.208 0.148-0.32 0.195-0.43 0.172-0.063-0.010-0.078-0.029-0.078-0.083 0.003-0.164 0.135-0.349 0.365-0.505 0.341-0.232 0.437-0.365 0.362-0.503-0.039-0.075-0.174-0.107-0.26-0.063-0.031 0.018-0.156 0.107-0.276 0.198-0.19 0.146-0.258 0.18-0.466 0.227-0.078 0.016-0.344-0.029-0.448-0.078-0.068-0.031-0.109-0.081-0.164-0.2-0.065-0.138-0.075-0.19-0.075-0.391 0-0.292 0.052-0.463 0.198-0.651 0.258-0.328 0.69-0.529 1.289-0.599 0.122-0.016 0.164-0.008 0.255 0.036 0.208 0.109 0.971 0.122 1.338 0.023 0.13-0.034 0.227-0.13 0.227-0.224 0-0.086-0.018-0.112-0.104-0.172-0.055-0.039-0.146-0.044-0.721-0.044-0.773 0-0.737 0.016-0.737-0.299 0-0.242 0.060-0.435 0.172-0.557 0.25-0.279 1.028-0.5 2.119-0.601 0.18-0.016 0.331-0.036 0.336-0.042 0.018-0.018 0.479-0.013 1.252 0.016zM19.033 1.265c0.167 0.013 0.656 0.091 0.885 0.141 0.065 0.016 0.312 0.063 0.555 0.104 0.245 0.044 0.596 0.13 0.797 0.195 0.201 0.063 0.44 0.128 0.536 0.143 0.232 0.036 1.336 0.518 1.432 0.625 0.026 0.029 0.063 0.052 0.083 0.052 0.078 0 0.693 0.448 1.206 0.883 0.562 0.477 1.159 1.062 1.614 1.591 0.094 0.107 0.174 0.2 0.185 0.208 0.049 0.044 0.601 0.776 0.81 1.073 0.255 0.359 0.463 0.69 0.463 0.729 0 0.013 0.070 0.13 0.159 0.263 0.169 0.258 0.654 1.219 0.831 1.646 0.708 1.716 1.070 3.398 1.109 5.168 0.042 1.708-0.198 3.273-0.739 4.869-0.604 1.773-1.58 3.45-2.825 4.856-0.409 0.463-1.138 1.161-1.604 1.541-1.734 1.409-3.755 2.403-5.9 2.895-0.797 0.182-1.437 0.276-2.33 0.344-0.489 0.036-2.036 0.016-2.367-0.031l-0.245-0.036 0.013-0.409c0.016-0.448 0.008-0.482-0.135-0.555-0.125-0.065-0.273-0.049-0.37 0.036l-0.086 0.076 0.005 0.38c0.005 0.208-0.003 0.383-0.013 0.391-0.023 0.013-0.414-0.057-0.982-0.182-1.648-0.359-3.377-1.083-4.791-2.005-0.518-0.336-1.143-0.797-1.432-1.052-0.057-0.049-0.174-0.151-0.26-0.221-0.318-0.268-1.044-0.987-1.328-1.315-0.195-0.227-0.224-0.26-0.393-0.469-0.409-0.51-0.497-0.628-0.781-1.055-0.38-0.57-0.805-1.299-0.992-1.705-0.193-0.414-0.255-0.547-0.299-0.651-0.107-0.24-0.406-1.065-0.5-1.367-0.052-0.172-0.104-0.349-0.117-0.391-0.141-0.45-0.341-1.424-0.419-2.028-0.057-0.443-0.13-1.466-0.13-1.836 0-0.333 0.070-1.362 0.115-1.695 0.021-0.151 0.047-0.333 0.055-0.404 0.018-0.148 0.034-0.242 0.143-0.781 0.234-1.153 0.693-2.45 1.25-3.541 0.253-0.489 0.37-0.695 0.406-0.708 0.016-0.005 0.065 0.094 0.115 0.219 0.289 0.763 0.508 1.12 1.099 1.799 0.266 0.305 0.406 0.417 0.802 0.638s0.641 0.328 0.922 0.398c0.128 0.034 0.255 0.083 0.286 0.109 0.102 0.094 0.651 0.424 0.909 0.547 0.138 0.068 0.253 0.13 0.253 0.141s-0.068 0.052-0.148 0.094c-0.216 0.109-0.294 0.216-0.328 0.456-0.023 0.174-0.023 0.203 0.023 0.292 0.078 0.148 0.224 0.237 0.505 0.31 0.432 0.112 0.781 0.135 1.263 0.086 0.466-0.049 0.542-0.078 0.555-0.224 0.005-0.047-0.005-0.102-0.023-0.125-0.070-0.081-0.148-0.086-0.552-0.031-0.437 0.060-0.614 0.055-1.015-0.029-0.307-0.068-0.38-0.096-0.398-0.172-0.039-0.154 0.154-0.302 0.471-0.357 0.148-0.026 0.463 0 1.055 0.086 0.078 0.013 0.234 0.023 0.344 0.023 0.18 0.003 0.206-0.003 0.24-0.055 0.060-0.086 0.052-0.195-0.016-0.24-0.052-0.031-0.672-0.167-1.161-0.25-0.253-0.044-0.805-0.24-1.229-0.437-0.24-0.112-0.594-0.398-0.802-0.654-0.19-0.229-0.198-0.255-0.164-0.417 0.078-0.362 0.146-0.406 0.607-0.401 0.612 0.010 1.317 0.216 1.583 0.461 0.117 0.109 0.424 0.286 0.833 0.479 0.453 0.213 0.513 0.24 0.544 0.24 0.115 0-0.117-0.266-0.396-0.453-0.117-0.078-0.279-0.198-0.357-0.263-0.208-0.174-0.224-0.187-0.305-0.237-0.138-0.089-0.607-0.503-0.906-0.805-0.333-0.333-0.555-0.768-0.578-1.133-0.010-0.167-0.003-0.208 0.042-0.281 0.078-0.122 0.156-0.143 0.484-0.125 0.469 0.023 0.979 0.174 1.471 0.437 0.365 0.193 0.487 0.281 0.794 0.573 0.086 0.081 0.25 0.234 0.365 0.338 0.445 0.404 0.872 0.854 1.096 1.153 0.128 0.172 0.341 0.435 0.474 0.583 0.133 0.151 0.26 0.312 0.284 0.359 0.047 0.099 0.161 0.19 0.237 0.19 0.057 0 0.135-0.091 0.135-0.156 0-0.099-0.167-0.331-0.489-0.677-0.047-0.049-0.141-0.167-0.208-0.26-0.325-0.456-0.513-0.674-0.935-1.086-0.344-0.341-0.45-0.458-0.44-0.495 0.031-0.091 0.612-0.982 1.049-1.609 0.091-0.13 0.174-0.253 0.19-0.273 0.37-0.57 0.581-0.846 1.031-1.354 0.245-0.276 0.698-0.732 0.883-0.885 0.638-0.534 1.422-1.086 1.888-1.336 0.859-0.456 1.086-0.549 1.718-0.711 1.148-0.292 1.429-0.325 2.291-0.255zM30.386 6.874c0 0.047-0.286 0.81-0.367 0.984-0.047 0.096-0.169 0.302-0.271 0.461-0.104 0.156-0.203 0.315-0.221 0.351s-0.096 0.151-0.177 0.258c-0.138 0.187-0.143 0.2-0.151 0.383l-0.010 0.187 0.122 0.047c0.112 0.044 0.128 0.044 0.286 0.003 0.091-0.023 0.255-0.078 0.362-0.122 0.109-0.042 0.208-0.078 0.224-0.078 0.026 0-0.016 0.081-0.344 0.651-0.323 0.562-0.338 0.581-0.375 0.424-0.089-0.362-0.469-1.414-0.706-1.948-0.094-0.213-0.453-0.924-0.497-0.989-0.086-0.122-0.060-0.135 0.297-0.151 0.284-0.013 0.38-0.029 0.682-0.12 0.633-0.187 0.765-0.229 0.911-0.297 0.154-0.070 0.234-0.086 0.234-0.044z"></path>
<path d="M16.299 3.367c-0.505 0.253-1.005 0.693-1.325 1.166-0.151 0.221-0.213 0.349-0.331 0.664-0.227 0.612-0.206 0.417-0.297 3.044-0.016 0.43-0.034 1.068-0.039 1.419l-0.008 0.635 0.099 0.302c0.133 0.398 0.185 0.51 0.315 0.664 0.266 0.32 0.307 0.354 0.713 0.562 0.435 0.224 0.552 0.263 1.015 0.323 1.573 0.208 2.27 0.24 4.072 0.177l0.872-0.029 0.206-0.089c0.177-0.073 0.247-0.122 0.461-0.328 0.216-0.206 0.552-0.622 0.643-0.799 0.016-0.029 0.063-0.193 0.107-0.365 0.070-0.279 0.081-0.372 0.094-0.846 0.010-0.294 0.029-0.703 0.042-0.911s0.036-0.672 0.052-1.028c0.042-1.015 0.076-1.64 0.107-1.953 0.031-0.323-0.005-0.596-0.107-0.792-0.029-0.060-0.089-0.203-0.13-0.315-0.102-0.276-0.135-0.338-0.31-0.57-0.237-0.315-0.547-0.573-0.914-0.755-0.406-0.203-0.365-0.198-1.484-0.224-0.38-0.010-0.789-0.029-0.911-0.044-0.122-0.013-0.771-0.029-1.445-0.034l-1.224-0.010-0.273 0.135zM18.89 3.828c0.695 0.026 0.841 0.044 1.276 0.169 0.242 0.070 0.404 0.161 0.583 0.325 0.023 0.021 0.143 0.128 0.263 0.234 0.122 0.107 0.242 0.219 0.266 0.247 0.091 0.104 0.43 0.628 0.463 0.716 0.018 0.049 0.076 0.172 0.122 0.271 0.161 0.325 0.294 0.7 0.365 1.031 0.063 0.292 0.070 0.38 0.070 0.872 0 0.469-0.008 0.586-0.057 0.812-0.078 0.357-0.213 0.75-0.359 1.034-0.109 0.216-0.172 0.318-0.393 0.641-0.177 0.26-0.789 0.81-1.044 0.94-0.039 0.021-0.125 0.068-0.193 0.107-0.156 0.091-0.552 0.237-0.815 0.305-1.531 0.385-3.171-0.365-3.963-1.815-0.398-0.729-0.57-1.523-0.503-2.338 0.065-0.807 0.359-1.57 0.857-2.205 0.141-0.185 0.568-0.588 0.768-0.734 0.474-0.336 1.161-0.617 1.565-0.635 0.029 0 0.357 0.010 0.729 0.023z"></path>
<path d="M20.335 5.431c-0.211 0.18-0.292 0.573-0.156 0.773 0.148 0.216 0.422 0.263 0.62 0.104 0.138-0.107 0.247-0.336 0.247-0.518 0-0.12-0.013-0.159-0.078-0.24-0.104-0.133-0.224-0.187-0.404-0.187-0.12 0-0.161 0.013-0.229 0.068zM18.408 6.486c-0.297 0.049-0.591 0.2-0.812 0.417-0.258 0.253-0.38 0.596-0.352 0.989 0.018 0.234 0.083 0.417 0.216 0.62 0.135 0.206 0.206 0.273 0.419 0.419 0.5 0.336 1.153 0.362 1.661 0.063 0.18-0.104 0.388-0.331 0.477-0.513 0.102-0.208 0.133-0.346 0.135-0.565 0.003-0.565-0.375-1.091-0.943-1.32-0.245-0.099-0.581-0.146-0.802-0.109zM17.914 13.256c-0.036 0.013-0.094 0.065-0.128 0.115-0.049 0.075-0.060 0.115-0.049 0.224 0.021 0.219 0.169 0.359 0.232 0.221 0.018-0.036 0.055-0.073 0.086-0.083 0.146-0.044 0.237-0.232 0.174-0.365-0.016-0.036-0.070-0.083-0.12-0.104-0.102-0.042-0.107-0.042-0.195-0.008zM10.845 14.266c-0.128 0.010-0.526 0.057-0.885 0.102-0.357 0.044-0.961 0.107-1.338 0.135-0.38 0.031-0.802 0.073-0.937 0.094-0.138 0.021-0.443 0.044-0.68 0.052s-0.456 0.026-0.487 0.042c-0.125 0.063-0.091 0.187 0.065 0.227 0.279 0.070 0.367 0.065 2.117-0.112l0.12-0.013 0.018 1.268c0.023 1.554-0.026 2.721-0.125 2.994-0.049 0.138-0.031 0.19 0.12 0.336 0.143 0.138 0.234 0.174 0.346 0.138 0.107-0.034 0.164-0.096 0.195-0.211 0.016-0.049 0.044-0.393 0.065-0.765 0.047-0.851 0.060-3.611 0.018-3.716-0.016-0.039-0.021-0.075-0.010-0.083 0.010-0.005 0.102-0.018 0.2-0.029 0.102-0.010 0.383-0.047 0.627-0.081s0.583-0.070 0.75-0.078c0.325-0.021 0.432-0.060 0.432-0.167 0-0.125-0.19-0.167-0.612-0.133zM12.003 14.326c-0.075 0.052-0.094 0.086-0.122 0.229-0.034 0.156-0.089 0.385-0.213 0.872-0.047 0.177-0.078 0.331-0.133 0.669-0.107 0.633-0.154 0.807-0.24 0.89-0.052 0.049-0.070 0.089-0.057 0.117 0.047 0.107 0.034 0.201-0.065 0.513-0.057 0.185-0.117 0.391-0.13 0.456-0.016 0.065-0.073 0.26-0.133 0.435-0.057 0.172-0.117 0.378-0.133 0.453s-0.042 0.151-0.055 0.169c-0.044 0.055-0.010 0.148 0.065 0.185 0.057 0.029 0.083 0.029 0.143 0 0.063-0.031 0.073-0.052 0.086-0.19 0.008-0.086 0.063-0.31 0.122-0.495 0.057-0.187 0.143-0.492 0.187-0.677 0.044-0.187 0.091-0.367 0.102-0.404 0.013-0.036 0.036-0.117 0.057-0.182 0.018-0.065 0.039-0.125 0.049-0.138 0.023-0.029 0.706-0.138 1.169-0.187 0.333-0.036 0.404-0.039 0.432-0.008 0.016 0.018 0.075 0.169 0.128 0.333 0.055 0.164 0.115 0.336 0.135 0.38 0.086 0.193 0.224 0.581 0.372 1.044 0.089 0.273 0.182 0.526 0.211 0.562 0.063 0.078 0.156 0.104 0.245 0.070 0.133-0.049 0.133-0.099 0-0.516-0.208-0.659-0.234-0.739-0.37-1.086-0.070-0.187-0.177-0.479-0.234-0.651-0.141-0.417-0.216-0.607-0.341-0.877-0.057-0.125-0.141-0.32-0.187-0.437-0.089-0.234-0.286-0.646-0.406-0.849-0.044-0.070-0.107-0.224-0.141-0.336-0.078-0.268-0.198-0.404-0.354-0.404-0.065 0-0.138 0.021-0.19 0.057zM12.428 15.359c0.19 0.385 0.284 0.594 0.344 0.758 0.018 0.049 0.081 0.201 0.143 0.333 0.060 0.135 0.102 0.253 0.091 0.26-0.008 0.010-0.122 0.026-0.25 0.034-0.128 0.010-0.424 0.044-0.659 0.078-0.237 0.034-0.437 0.052-0.448 0.042-0.010-0.008 0.023-0.148 0.075-0.31s0.12-0.388 0.148-0.503c0.031-0.115 0.073-0.268 0.091-0.338 0.021-0.073 0.073-0.26 0.117-0.417 0.096-0.357 0.099-0.359 0.133-0.338 0.016 0.010 0.112 0.19 0.213 0.401zM14.326 14.498c-0.099 0.099-0.107 0.544-0.013 1.086 0.031 0.18 0.044 0.599 0.063 1.836 0.010 0.88 0.031 1.674 0.042 1.763 0.016 0.115 0.039 0.174 0.073 0.203 0.065 0.047 0.221 0.049 0.286 0.003 0.047-0.034 0.049-0.089 0.042-1.216-0.005-1.182-0.039-2.388-0.070-2.596-0.010-0.060-0.008-0.109 0.005-0.109 0.023 0 0.32 0.445 0.409 0.612 0.271 0.505 0.987 2.172 1.047 2.442 0.070 0.31 0.169 0.56 0.24 0.617 0.094 0.073 0.208 0.065 0.352-0.026 0.143-0.089 0.138-0.076 0.174-0.547 0.047-0.604 0.057-1.271 0.029-1.744-0.047-0.781-0.078-1.377-0.096-1.82-0.018-0.487-0.031-0.523-0.213-0.523-0.081 0-0.115 0.016-0.156 0.068-0.049 0.063-0.055 0.104-0.055 0.411 0 0.187 0.018 0.641 0.042 1.005 0.021 0.365 0.047 0.838 0.060 1.055 0.023 0.406 0.008 1.133-0.023 1.133-0.023 0-0.047-0.052-0.247-0.534-0.091-0.216-0.253-0.573-0.359-0.794s-0.221-0.469-0.253-0.547c-0.096-0.247-0.135-0.318-0.32-0.594-0.099-0.146-0.273-0.456-0.391-0.69-0.193-0.38-0.224-0.427-0.312-0.471-0.156-0.075-0.289-0.083-0.351-0.021zM17.614 14.5c-0.031 0.013-0.068 0.039-0.083 0.060-0.023 0.026-0.034 0.505-0.044 1.778-0.008 0.961-0.023 1.885-0.039 2.057-0.013 0.172-0.031 0.414-0.042 0.536-0.018 0.216-0.018 0.227 0.042 0.268 0.094 0.065 0.245 0.055 0.305-0.023 0.042-0.052 0.055-0.135 0.081-0.487 0.016-0.234 0.042-0.542 0.055-0.685 0.016-0.143 0.026-0.961 0.026-1.823 0-1.44-0.005-1.567-0.047-1.62-0.049-0.065-0.174-0.096-0.253-0.063zM19.583 14.505c-0.234 0.047-0.273 0.154-0.328 0.922-0.044 0.614-0.086 0.932-0.18 1.323-0.068 0.286-0.076 0.32-0.211 1.021-0.049 0.258-0.109 0.521-0.133 0.586s-0.052 0.151-0.065 0.195c-0.151 0.562-0.161 0.682-0.070 0.768 0.128 0.117 0.359 0.021 0.359-0.151 0-0.044 0.031-0.182 0.068-0.307 0.193-0.656 0.229-0.802 0.294-1.127l0.070-0.354 0.417-0.016c0.227-0.010 0.427-0.008 0.443 0.005 0.026 0.021 0.042 0.102 0.117 0.57 0.016 0.094 0.068 0.357 0.117 0.586 0.047 0.229 0.099 0.495 0.117 0.591 0.031 0.195 0.076 0.25 0.213 0.273 0.12 0.018 0.227-0.076 0.227-0.206 0-0.099-0.081-0.536-0.154-0.841-0.029-0.115-0.070-0.344-0.094-0.513-0.023-0.167-0.052-0.341-0.065-0.388-0.023-0.076-0.018-0.096 0.039-0.154 0.055-0.057 0.060-0.076 0.031-0.112-0.018-0.026-0.063-0.060-0.096-0.078-0.055-0.026-0.078-0.078-0.135-0.305-0.042-0.151-0.096-0.409-0.125-0.573s-0.096-0.453-0.154-0.638c-0.055-0.187-0.117-0.409-0.135-0.495-0.055-0.255-0.148-0.489-0.221-0.555-0.070-0.060-0.148-0.068-0.346-0.029zM19.788 15.44c0.013 0.049 0.055 0.185 0.089 0.299s0.076 0.284 0.091 0.378c0.049 0.281 0.086 0.443 0.148 0.69 0.031 0.128 0.049 0.245 0.039 0.255-0.023 0.023-0.672 0.034-0.695 0.010-0.008-0.008 0.021-0.164 0.065-0.349 0.042-0.182 0.089-0.427 0.104-0.542 0.057-0.414 0.081-0.648 0.081-0.768 0-0.122 0.034-0.203 0.047-0.112 0.003 0.026 0.018 0.089 0.031 0.138zM22.449 18.921c-0.141 0.122-0.052 0.294 0.151 0.294 0.115 0 0.234-0.086 0.234-0.169 0-0.023-0.029-0.070-0.065-0.104-0.078-0.078-0.24-0.089-0.32-0.021zM18.773 19.869c-0.065 0.013-0.141 0.018-0.172 0.010-0.029-0.005-0.076 0.005-0.104 0.026-0.044 0.031-0.049 0.068-0.044 0.383 0.003 0.19 0.016 0.482 0.031 0.646s0.036 0.93 0.044 1.7c0.021 1.489 0.018 1.476 0.141 1.476 0.029 0 0.070-0.029 0.094-0.065 0.039-0.060 0.042-0.167 0.031-1.083-0.008-0.557-0.005-1.021 0.008-1.026 0.031-0.021 0.161 0.102 0.245 0.227 0.042 0.063 0.13 0.177 0.195 0.255 0.151 0.177 0.167 0.208 0.221 0.411 0.036 0.148 0.112 0.32 0.271 0.617 0.073 0.141 0.182 0.414 0.227 0.57 0.047 0.172 0.117 0.216 0.203 0.13 0.104-0.104 0-0.437-0.341-1.088-0.044-0.089-0.094-0.216-0.109-0.286-0.039-0.169-0.115-0.338-0.187-0.411-0.031-0.034-0.109-0.13-0.172-0.216-0.065-0.086-0.156-0.201-0.206-0.253-0.109-0.12-0.112-0.167-0.005-0.187 0.057-0.010 0.143-0.081 0.289-0.232 0.388-0.401 0.487-0.745 0.32-1.107-0.055-0.115-0.122-0.206-0.229-0.302-0.224-0.203-0.435-0.258-0.75-0.195zM19.174 20.101c0.213 0.081 0.427 0.417 0.398 0.625-0.023 0.177-0.133 0.37-0.32 0.565l-0.182 0.19h-0.289l-0.016-0.19c-0.008-0.102-0.031-0.409-0.047-0.677-0.029-0.424-0.029-0.495 0.005-0.516 0.049-0.031 0.367-0.031 0.45 0.003zM23.788 19.9c-0.104 0.076-0.164 0.596-0.302 2.557-0.029 0.401-0.065 0.919-0.081 1.148-0.018 0.232-0.023 0.443-0.013 0.466 0.008 0.026 0.036 0.039 0.073 0.034 0.068-0.008 0.055 0.078 0.177-1.010 0.044-0.393 0.089-0.768 0.094-0.828 0.013-0.109 0.018-0.112 0.083-0.096 0.161 0.044 0.286 0.063 0.427 0.065 0.167 0 0.148-0.023 0.232 0.299 0.135 0.51 0.312 1.133 0.349 1.224 0.063 0.146 0.115 0.203 0.161 0.167 0.052-0.044 0.044-0.083-0.099-0.656-0.073-0.289-0.167-0.661-0.206-0.825s-0.089-0.365-0.109-0.443c-0.023-0.078-0.122-0.448-0.224-0.82-0.258-0.948-0.279-1.008-0.357-1.143-0.083-0.143-0.143-0.182-0.206-0.138zM23.952 20.653c0.016 0.047 0.052 0.174 0.078 0.281 0.068 0.26 0.172 0.63 0.224 0.807 0.081 0.266 0.081 0.26-0.003 0.26-0.107 0-0.404-0.073-0.448-0.109-0.023-0.021-0.031-0.060-0.021-0.125 0.008-0.049 0.026-0.279 0.042-0.508 0.044-0.698 0.065-0.797 0.128-0.607zM16.654 19.95c-0.060 0.091-0.135 0.328-0.24 0.737-0.049 0.201-0.12 0.44-0.156 0.534-0.122 0.31-0.435 0.781-0.518 0.781-0.026 0-0.036-0.13-0.049-0.568-0.018-0.588-0.078-1.278-0.12-1.38-0.016-0.036-0.047-0.057-0.091-0.057-0.122 0-0.13 0.068-0.075 0.734 0.039 0.497 0.047 0.841 0.044 1.916-0.005 1.281-0.003 1.312 0.047 1.362 0.047 0.047 0.060 0.049 0.109 0.016 0.065-0.044 0.063-0.013 0.091-0.956 0.016-0.568 0.023-0.638 0.063-0.646 0.031-0.005 0.112 0.083 0.263 0.286 0.297 0.401 0.289 0.385 0.37 0.737 0.107 0.471 0.115 0.503 0.159 0.547 0.052 0.049 0.125 0.049 0.167 0 0.039-0.047 0.026-0.18-0.049-0.536-0.070-0.341-0.146-0.526-0.273-0.682-0.060-0.076-0.135-0.177-0.172-0.227-0.034-0.049-0.107-0.141-0.161-0.201-0.055-0.063-0.099-0.133-0.099-0.156 0-0.026 0.036-0.083 0.081-0.125 0.091-0.089 0.336-0.492 0.44-0.729 0.039-0.086 0.102-0.279 0.138-0.43 0.232-0.961 0.234-0.995 0.13-1.010-0.036-0.005-0.070 0.013-0.096 0.052zM16.94 19.958c-0.034 0.036-0.039 0.104-0.029 0.489 0.008 0.247 0.018 0.833 0.026 1.307 0.016 1.052 0.047 1.523 0.115 1.802 0.055 0.229 0.102 0.31 0.224 0.393 0.174 0.12 0.284 0.089 0.388-0.109 0.047-0.086 0.047-0.099 0.010-0.135s-0.047-0.036-0.12 0c-0.109 0.057-0.154 0.052-0.198-0.018-0.104-0.156-0.159-0.982-0.182-2.687-0.013-0.807-0.034-0.979-0.135-1.047-0.049-0.031-0.063-0.031-0.099 0.005zM22.585 19.963c-0.039 0.042-0.042 0.089-0.029 0.477 0.010 0.237 0.029 0.505 0.044 0.599 0.013 0.094 0.031 0.544 0.039 1.002 0.018 0.89 0.078 1.828 0.122 1.88 0.016 0.018 0.049 0.034 0.076 0.034 0.086 0 0.107-0.091 0.091-0.362-0.010-0.138-0.029-0.747-0.042-1.357s-0.036-1.2-0.049-1.315c-0.016-0.115-0.039-0.37-0.052-0.565-0.021-0.352-0.044-0.437-0.122-0.437-0.018 0-0.052 0.021-0.078 0.044zM20.161 20.015c-0.057 0.086-0.057 0.271-0.010 0.945 0.034 0.461 0.156 1.614 0.174 1.643 0.005 0.010 0.021 0.221 0.036 0.469 0.044 0.799 0.091 0.995 0.219 0.901 0.052-0.039 0.052-0.010 0.018-0.63-0.029-0.508-0.039-0.633-0.13-1.484-0.070-0.656-0.107-1.271-0.081-1.297 0.026-0.029 0.206 0.297 0.312 0.568 0.151 0.378 0.297 0.739 0.482 1.185 0.039 0.094 0.234 0.5 0.432 0.906 0.198 0.404 0.362 0.747 0.362 0.76s0.023 0.036 0.049 0.052c0.039 0.018 0.060 0.016 0.091-0.016 0.049-0.049 0.052 0.010-0.010-0.505-0.073-0.596-0.148-1.359-0.195-1.992-0.008-0.115-0.039-0.354-0.068-0.534s-0.063-0.456-0.073-0.617c-0.021-0.302-0.047-0.372-0.141-0.372-0.070 0-0.12 0.073-0.122 0.182 0 0.13 0.073 0.76 0.117 0.989 0.018 0.107 0.044 0.284 0.052 0.391 0.023 0.312 0.143 1.271 0.185 1.495 0.036 0.206 0.036 0.242-0.010 0.213-0.052-0.031-0.378-0.792-0.693-1.612-0.232-0.604-0.375-0.932-0.487-1.133-0.089-0.154-0.19-0.328-0.224-0.391-0.065-0.112-0.148-0.187-0.208-0.187-0.018 0-0.055 0.031-0.078 0.070zM12.899 20.020c-0.299 0.076-0.492 0.393-0.641 1.047-0.052 0.24-0.060 0.333-0.057 0.844 0 0.622 0.044 0.932 0.185 1.328 0.122 0.341 0.31 0.596 0.492 0.664 0.247 0.094 0.51-0.104 0.661-0.5 0.156-0.406 0.234-0.88 0.234-1.44 0-0.419-0.034-0.703-0.12-1.039-0.172-0.659-0.443-0.982-0.755-0.904zM13.014 20.257c0.010 0 0.049 0.026 0.086 0.060 0.234 0.203 0.391 0.708 0.437 1.429 0.055 0.802-0.070 1.492-0.328 1.838-0.253 0.336-0.56-0.042-0.716-0.875-0.143-0.773-0.023-1.901 0.242-2.289 0.089-0.128 0.177-0.195 0.227-0.177 0.021 0.008 0.044 0.013 0.052 0.013zM17.784 20.075c-0.039 0.096-0.021 0.393 0.057 0.893 0.049 0.305 0.055 0.484 0.063 1.633 0.005 0.708 0.016 1.315 0.023 1.349 0.036 0.148 0.229 0.12 0.362-0.055 0.091-0.117 0.086-0.148-0.023-0.148h-0.091l-0.003-0.216c-0.003-0.117-0.005-0.672-0.008-1.229-0.005-0.93-0.010-1.044-0.065-1.367-0.031-0.193-0.065-0.45-0.073-0.573-0.016-0.289-0.044-0.365-0.138-0.365-0.055 0-0.078 0.018-0.104 0.078zM10.73 20.075c-0.063 0.029-0.159 0.052-0.213 0.052-0.148 0-0.164 0.047-0.125 0.385 0.021 0.185 0.034 0.797 0.039 1.833 0.003 0.854 0.013 1.565 0.021 1.58 0.029 0.047 0.141 0.034 0.169-0.018 0.047-0.086 0.081-0.57 0.081-1.114 0-0.424 0.008-0.531 0.034-0.531 0.021 0 0.052 0.031 0.070 0.070 0.021 0.042 0.057 0.102 0.081 0.138 0.133 0.198 0.245 0.5 0.401 1.081 0.107 0.391 0.164 0.523 0.237 0.557 0.052 0.023 0.073 0.018 0.115-0.023 0.063-0.063 0.063-0.078 0.016-0.193-0.021-0.049-0.063-0.187-0.094-0.307-0.075-0.294-0.281-0.922-0.341-1.041-0.026-0.052-0.083-0.146-0.125-0.208s-0.128-0.203-0.193-0.315l-0.12-0.201 0.083-0.034c0.047-0.021 0.122-0.044 0.172-0.052 0.148-0.031 0.461-0.201 0.612-0.333 0.083-0.078 0.169-0.185 0.211-0.268 0.083-0.172 0.115-0.456 0.065-0.628-0.047-0.164-0.219-0.338-0.367-0.375-0.063-0.016-0.174-0.047-0.247-0.068-0.187-0.055-0.44-0.049-0.581 0.013zM11.261 20.296c0.057 0.018 0.141 0.042 0.187 0.052 0.107 0.021 0.232 0.151 0.253 0.258 0.018 0.099-0.021 0.325-0.073 0.43-0.055 0.104-0.245 0.266-0.424 0.359-0.133 0.073-0.461 0.161-0.487 0.135-0.005-0.005-0.023-0.216-0.039-0.466-0.018-0.25-0.036-0.516-0.047-0.588-0.013-0.128-0.010-0.133 0.060-0.161 0.19-0.081 0.362-0.083 0.57-0.018zM14.308 20.046c-0.164 0.068-0.294 0.352-0.318 0.693-0.013 0.187-0.005 0.234 0.070 0.463 0.047 0.141 0.143 0.357 0.216 0.482 0.276 0.479 0.401 0.831 0.427 1.211 0.018 0.279-0.036 0.484-0.161 0.578-0.125 0.096-0.263 0.146-0.419 0.146-0.122 0.003-0.156-0.008-0.216-0.065-0.089-0.086-0.193-0.089-0.229-0.010-0.057 0.125 0.086 0.294 0.271 0.323 0.406 0.060 0.807-0.133 0.953-0.458 0.042-0.096 0.052-0.172 0.052-0.432-0.003-0.419-0.049-0.596-0.302-1.13-0.044-0.094-0.112-0.219-0.151-0.281s-0.115-0.219-0.164-0.346c-0.078-0.193-0.094-0.266-0.094-0.422 0-0.19 0.047-0.378 0.117-0.471 0.029-0.039 0.068-0.047 0.185-0.044 0.174 0.003 0.211 0.029 0.234 0.156 0.023 0.117 0.078 0.255 0.115 0.276 0.044 0.029 0.104-0.156 0.104-0.32 0-0.159-0.060-0.266-0.146-0.266-0.023 0-0.070-0.023-0.107-0.052-0.052-0.039-0.104-0.052-0.227-0.049-0.086 0-0.182 0.010-0.211 0.021zM9.15 20.153c-0.089 0.013-0.206 0.042-0.26 0.065-0.060 0.026-0.133 0.036-0.182 0.026-0.177-0.031-0.164-0.13-0.161 1.414 0.003 0.771 0 1.62-0.003 1.893-0.003 0.44 0 0.497 0.042 0.526 0.057 0.044 0.099 0.042 0.146-0.003 0.047-0.047 0.081-0.836 0.070-1.609l-0.005-0.539 0.255 0.016c0.62 0.036 0.969-0.229 1.13-0.867 0.065-0.253 0.065-0.286-0.003-0.469-0.060-0.161-0.187-0.318-0.328-0.404-0.104-0.065-0.43-0.089-0.7-0.049zM9.785 20.426c0.198 0.13 0.26 0.338 0.18 0.604-0.102 0.331-0.271 0.544-0.484 0.607-0.237 0.070-0.648 0.049-0.656-0.034-0.003-0.018-0.008-0.060-0.010-0.096-0.005-0.036-0.016-0.279-0.026-0.539l-0.021-0.477 0.141-0.065c0.125-0.057 0.174-0.065 0.461-0.065 0.297 0 0.325 0.005 0.417 0.065z"></path>
</symbol>
</defs>
</svg>
